<svg width="48" height="48" viewBox="0 0 48 48" fill="none" xmlns="http://www.w3.org/2000/svg">
<g clip-path="url(#clip0)">
<path d="M30.4015 9.59961H43.2016C43.6435 9.59961 44.0015 9.2416 44.0015 8.79945V2.3995C44.0015 1.95734 43.6435 1.59961 43.2016 1.59961H30.4015C29.9593 1.59961 29.6016 1.95734 29.6016 2.3995V8.79945C29.6016 9.2416 29.9593 9.59961 30.4015 9.59961ZM31.2016 3.19966H42.4015V7.99955H31.2016V3.19966Z" fill="url(#paint0_linear)"/>
<path d="M47.2016 11.1992H34.4015C33.9593 11.1992 33.6016 11.5569 33.6016 11.9991V18.3991C33.6016 18.8412 33.9593 19.1992 34.4015 19.1992H47.2016C47.6435 19.1992 48.0015 18.8412 48.0015 18.3991V11.9991C48.0015 11.5569 47.6435 11.1992 47.2016 11.1992ZM46.4015 17.5992H35.2016V12.799H46.4015V17.5992Z" fill="url(#paint1_linear)"/>
<path d="M47.201 20.8008H37.6009C37.1588 20.8008 36.8008 21.1588 36.8008 21.6009V28.0009C36.8008 28.443 37.1588 28.8008 37.6009 28.8008H47.201C47.6429 28.8008 48.0009 28.443 48.0009 28.0009V21.6009C48.0009 21.1588 47.6429 20.8008 47.201 20.8008ZM46.4008 27.201H38.4008V22.4008H46.4008V27.201Z" fill="url(#paint2_linear)"/>
<path d="M47.2001 30.4004H40.7999C40.358 30.4004 40 30.7584 40 31.2006V37.6005C40 38.0427 40.358 38.4004 40.7999 38.4004H47.2001C47.642 38.4004 48 38.0427 48 37.6005V31.2006C48 30.7584 47.642 30.4004 47.2001 30.4004ZM46.3999 36.8003H41.6001V32.0004H46.3999V36.8003Z" fill="url(#paint3_linear)"/>
<path d="M40.7999 40H34.8772C34.7791 39.4526 34.6667 38.9194 34.5334 38.3999H37.6001C38.0422 38.3999 38.3999 38.0422 38.3999 37.6001V31.2001C38.3999 30.7579 38.0422 30.3999 37.6001 30.3999H30.3369C29.8525 29.8385 29.3405 29.3054 28.7999 28.7999H34.3999C34.8421 28.7999 35.2001 28.4422 35.2001 28V21.6001C35.2001 21.1579 34.8421 20.7999 34.3999 20.7999H21.6001C21.1579 20.7999 20.7999 21.1579 20.7999 21.6001V24.1826L20.1332 23.9227C19.7193 23.7615 19.5228 23.2982 19.6842 22.8843C19.6982 22.8561 19.7122 22.821 19.7264 22.793L20.7229 20.9545C21.0247 20.386 21.2911 19.8035 21.5228 19.207H31.193C31.6351 19.207 31.9929 18.8492 31.9929 18.4071V12C31.9929 11.5578 31.6351 11.2001 31.193 11.2001H22.3931C22.3018 10.6595 22.1894 10.1264 22.0422 9.60005H27.2001C27.642 9.60005 28 9.24205 28 8.79989V2.39995C28 1.95779 27.642 1.60005 27.2001 1.60005H16.6105C15.1299 0.561404 13.3755 0.00712716 11.5718 0H0.79989C0.358004 0 0 0.358004 0 0.79989V47.2001C0 47.642 0.358004 48 0.79989 48H40.7999C41.2421 48 41.6001 47.642 41.6001 47.2001V40.7999C41.6001 40.358 41.2421 40 40.7999 40ZM36.7999 32V36.7999H34.063C33.8808 36.2947 33.6771 35.8035 33.4597 35.3194C33.3964 35.1719 33.3194 35.0247 33.2492 34.8843C33.0877 34.5403 32.9123 34.1965 32.7229 33.8596C32.6456 33.7122 32.5614 33.5578 32.4701 33.4106C32.2527 33.0387 32.0211 32.6667 31.7755 32.3087C31.7193 32.2316 31.6702 32.1404 31.614 32.0562C31.6001 32.0351 31.5929 32.0211 31.5789 32H36.7999ZM22.3999 24.807V22.3999H33.6001V27.2001H26.8421C26.6806 27.0806 26.5123 26.9753 26.3438 26.8632C26.1965 26.7648 26.0562 26.6667 25.9087 26.5685C25.6842 26.4282 25.4597 26.2947 25.2281 26.1615C25.0948 26.0842 24.9545 26 24.821 25.9227C24.5543 25.7755 24.2878 25.642 24.014 25.5159C23.9087 25.4597 23.8035 25.4035 23.6913 25.3544C23.3054 25.1719 22.9194 25.0104 22.5263 24.8492L22.3999 24.807ZM30.3999 12.7999V17.6001H22.0702C22.0842 17.5439 22.0981 17.4808 22.1124 17.4246C22.1826 17.1508 22.2456 16.8701 22.3018 16.5965C22.3229 16.5052 22.3369 16.4139 22.358 16.3298C22.4211 15.9789 22.4772 15.628 22.5123 15.2703C22.5192 15.207 22.5192 15.1439 22.5263 15.0806C22.5543 14.7791 22.5754 14.4841 22.5825 14.1826C22.5894 14.0773 22.5894 13.9789 22.5894 13.8736C22.5965 13.5439 22.5894 13.2209 22.5754 12.8912C22.5754 12.8632 22.5754 12.835 22.5754 12.807L30.3999 12.7999ZM26.3999 3.20011V8H21.5016C21.4877 7.95779 21.4597 7.91584 21.4457 7.87363C21.2843 7.48081 21.1088 7.09485 20.9194 6.71573C20.8983 6.68065 20.8772 6.64556 20.8632 6.61047C20.6806 6.26672 20.4841 5.92982 20.2807 5.60005C20.2245 5.50877 20.1683 5.41749 20.1124 5.32621C19.8808 4.97533 19.642 4.62445 19.3824 4.29468C19.3613 4.26672 19.3405 4.24561 19.3194 4.21765C19.0737 3.90872 18.821 3.61404 18.5543 3.32621C18.5123 3.28427 18.4841 3.2352 18.4422 3.19298L26.3999 3.20011ZM1.60005 1.60005H11.565C13.1299 1.60005 14.6527 2.11239 15.9019 3.05263C16.0211 3.13679 16.1404 3.22807 16.2527 3.32621C16.2667 3.34046 16.3087 3.3824 16.3229 3.38953C18.0702 4.92626 19.4035 6.87719 20.1965 9.06661C20.5474 10.0422 20.7859 11.0526 20.9052 12.0842C21.1368 14.1264 20.9052 16.1965 20.2245 18.1332C19.986 18.835 19.6771 19.5228 19.3194 20.1754L18.3229 22.014C17.6842 23.179 18.1124 24.6316 19.2703 25.2703C19.3613 25.3194 19.4526 25.3613 19.5439 25.3964L21.937 26.3298C22.3087 26.4772 22.6738 26.6316 23.0315 26.7999C24.1124 27.3054 25.1439 27.9227 26.1053 28.6245C27.3122 29.5088 28.3999 30.5403 29.3544 31.6913C30.744 33.3684 31.8246 35.2771 32.5543 37.3262C32.6176 37.4948 32.6667 37.6562 32.7229 37.8246C33.0455 38.821 33.2771 39.8457 33.4175 40.8912C33.5367 41.7264 33.5929 42.5754 33.5929 43.4246V46.386H1.59293V1.60005H1.60005ZM40 46.3999H35.2001V43.4386C35.2001 42.8912 35.1719 42.3438 35.1228 41.7823C35.1157 41.7193 35.1228 41.6562 35.1157 41.5929H40V46.3999Z" fill="url(#paint4_linear)"/>
</g>
<defs>
<linearGradient id="paint0_linear" x1="29.6016" y1="5.59961" x2="44.0015" y2="5.59961" gradientUnits="userSpaceOnUse">
<stop stop-color="#BDC3C7"/>
<stop offset="1" stop-color="#2C3E50"/>
</linearGradient>
<linearGradient id="paint1_linear" x1="33.6016" y1="15.1992" x2="48.0015" y2="15.1992" gradientUnits="userSpaceOnUse">
<stop stop-color="#BDC3C7"/>
<stop offset="1" stop-color="#2C3E50"/>
</linearGradient>
<linearGradient id="paint2_linear" x1="36.8008" y1="24.8008" x2="48.0009" y2="24.8008" gradientUnits="userSpaceOnUse">
<stop stop-color="#BDC3C7"/>
<stop offset="1" stop-color="#2C3E50"/>
</linearGradient>
<linearGradient id="paint3_linear" x1="40" y1="34.4004" x2="48" y2="34.4004" gradientUnits="userSpaceOnUse">
<stop stop-color="#BDC3C7"/>
<stop offset="1" stop-color="#2C3E50"/>
</linearGradient>
<linearGradient id="paint4_linear" x1="0" y1="24" x2="41.6001" y2="24" gradientUnits="userSpaceOnUse">
<stop stop-color="#BDC3C7"/>
<stop offset="1" stop-color="#2C3E50"/>
</linearGradient>
<clipPath id="clip0">
<rect width="48" height="48" fill="white"/>
</clipPath>
</defs>
</svg>
