<svg width="48" height="48" viewBox="0 0 48 48" fill="none" xmlns="http://www.w3.org/2000/svg">
<path d="M38.623 15.7502L43.738 8.9297L36.319 1.5107C35.3568 0.549201 33.6873 0.524451 32.6988 1.4582L10.2025 22.669C8.2675 23.0252 6.48625 23.9507 5.06575 25.3712L0.4375 30.0002L11.248 40.8107L18.4375 33.6212C18.5417 33.5169 18.637 33.4059 18.733 33.2957L22.5798 37.1424L24.748 34.2504V47.2502H47.248V15.7502H38.623ZM38.167 13.8587L36.988 12.6797L38.329 10.8917L39.508 12.0707L38.167 13.8587ZM25.738 27.6797L27.079 25.8917L28.258 27.0707L26.917 28.8587L25.738 27.6797ZM26.248 41.2502H28.3915C28.1185 42.2994 27.2973 43.1207 26.248 43.3937V41.2502ZM27.988 24.6797L29.329 22.8917L30.508 24.0707L29.167 25.8587L27.988 24.6797ZM30.238 21.6797L31.579 19.8917L32.758 21.0707L31.417 22.8587L30.238 21.6797ZM32.488 18.6797L33.829 16.8917L35.008 18.0707L33.667 19.8587L32.488 18.6797ZM34.738 15.6797L36.079 13.8917L37.258 15.0707L35.917 16.8587L34.738 15.6797ZM41.758 9.0707L40.417 10.8587L39.238 9.6797L40.579 7.8917L41.758 9.0707ZM4.8085 32.2502L5.998 31.0607L10.1875 35.2502L8.998 36.4397L4.8085 32.2502ZM7.0585 30.0002L8.6875 28.3712C9.57175 27.4869 10.747 27.0002 11.998 27.0002C13.249 27.0002 14.4242 27.4869 15.3085 28.3712L15.4367 28.5002C15.6377 28.7012 15.748 28.9667 15.748 29.2502C15.748 29.5337 15.6377 29.7992 15.4375 30.0002L11.248 34.1897L7.0585 30.0002ZM17.377 32.5607L11.248 38.6897L10.0585 37.5002L16.498 31.0607C16.9818 30.5762 17.248 29.9334 17.248 29.2502C17.248 28.5669 16.9818 27.9234 16.498 27.4397L16.369 27.3107C15.202 26.143 13.6495 25.5002 11.998 25.5002C10.3465 25.5002 8.794 26.143 7.627 27.3107L3.748 31.1897L2.5585 30.0002L6.12625 26.4317C7.6945 24.8634 9.7795 24.0002 11.998 24.0002H12.6947C14.464 24.0002 16.1267 24.6887 17.377 25.9397C18.2612 26.8247 18.748 27.9999 18.748 29.2502C18.748 30.5004 18.2612 31.6757 17.377 32.5607ZM19.5858 32.0274C20.0155 31.1762 20.248 30.2319 20.248 29.2502C20.248 27.5994 19.6052 26.0469 18.4375 24.8792C16.9037 23.3454 14.8645 22.5002 12.6947 22.5002H12.568L33.7285 2.54945C34.147 2.15495 34.8535 2.16545 35.26 2.5712L39.5088 6.81995L20.167 32.6087L19.5858 32.0274ZM22.417 34.8587L21.238 33.6797L22.579 31.8917L23.758 33.0707L22.417 34.8587ZM24.667 31.8587L23.488 30.6797L24.829 28.8917L26.008 30.0707L24.667 31.8587ZM39.136 45.7502C39.4465 44.8794 40.2715 44.2502 41.248 44.2502C42.2245 44.2502 43.0495 44.8794 43.36 45.7502H39.136ZM45.748 45.7502H44.9222C44.5735 44.0409 43.0592 42.7502 41.248 42.7502C39.4368 42.7502 37.9225 44.0409 37.5738 45.7502H26.248V44.9327C28.1283 44.6154 29.6125 43.1304 29.9305 41.2502H30.8238C31.1725 42.9594 32.6868 44.2502 34.498 44.2502C36.3092 44.2502 37.8235 42.9594 38.1722 41.2502H45.748V45.7502ZM32.386 41.2502H36.6092C36.2988 42.1209 35.4738 42.7502 34.4973 42.7502C33.5208 42.7502 32.6965 42.1209 32.386 41.2502ZM45.748 39.7502H39.748V31.5002H38.248V39.7502H35.248V33.0002H33.748V39.7502H26.248V32.2502L37.498 17.2502H45.748V39.7502Z" fill="url(#paint0_linear)"/>
<path d="M30 43.5H31.5V45H30V43.5Z" fill="url(#paint1_linear)"/>
<path d="M19.4023 18.2129L24.9961 12.9418L26.0251 14.0338L20.4313 19.3049L19.4023 18.2129Z" fill="url(#paint2_linear)"/>
<path d="M16.2188 21.2139L17.8099 19.7145L18.8386 20.8062L17.2474 22.3056L16.2188 21.2139Z" fill="url(#paint3_linear)"/>
<path d="M34.5 3.75C33.2595 3.75 32.25 4.7595 32.25 6C32.25 7.2405 33.2595 8.25 34.5 8.25C35.7405 8.25 36.75 7.2405 36.75 6C36.75 4.7595 35.7405 3.75 34.5 3.75ZM34.5 6.75C34.0868 6.75 33.75 6.414 33.75 6C33.75 5.586 34.0868 5.25 34.5 5.25C34.9132 5.25 35.25 5.586 35.25 6C35.25 6.414 34.9132 6.75 34.5 6.75Z" fill="url(#paint4_linear)"/>
<path d="M36.75 27.75V21H35.25V27.75C35.25 28.9905 36.2595 30 37.5 30C38.7405 30 39.75 28.9905 39.75 27.75V25.5H38.25V27.75C38.25 28.164 37.9132 28.5 37.5 28.5C37.0868 28.5 36.75 28.164 36.75 27.75Z" fill="url(#paint5_linear)"/>
<path d="M42.75 21C42.75 20.586 43.0868 20.25 43.5 20.25H44.25V18.75H43.5C42.2595 18.75 41.25 19.7595 41.25 21V26.25H42.75V21Z" fill="url(#paint6_linear)"/>
<path d="M27.75 30.75H29.25V38.25H27.75V30.75Z" fill="url(#paint7_linear)"/>
<path d="M44.25 36V27.75H42.75V36C42.75 36.414 42.4132 36.75 42 36.75H41.25V38.25H42C43.2405 38.25 44.25 37.2405 44.25 36Z" fill="url(#paint8_linear)"/>
<defs>
<linearGradient id="paint0_linear" x1="0.4375" y1="24.0118" x2="47.248" y2="24.0118" gradientUnits="userSpaceOnUse">
<stop stop-color="#BDC3C7"/>
<stop offset="1" stop-color="#2C3E50"/>
</linearGradient>
<linearGradient id="paint1_linear" x1="30" y1="44.25" x2="31.5" y2="44.25" gradientUnits="userSpaceOnUse">
<stop stop-color="#BDC3C7"/>
<stop offset="1" stop-color="#2C3E50"/>
</linearGradient>
<linearGradient id="paint2_linear" x1="19.9168" y1="18.7589" x2="25.5106" y2="13.4878" gradientUnits="userSpaceOnUse">
<stop stop-color="#BDC3C7"/>
<stop offset="1" stop-color="#2C3E50"/>
</linearGradient>
<linearGradient id="paint3_linear" x1="16.7331" y1="21.7597" x2="18.3242" y2="20.2604" gradientUnits="userSpaceOnUse">
<stop stop-color="#BDC3C7"/>
<stop offset="1" stop-color="#2C3E50"/>
</linearGradient>
<linearGradient id="paint4_linear" x1="32.25" y1="6" x2="36.75" y2="6" gradientUnits="userSpaceOnUse">
<stop stop-color="#BDC3C7"/>
<stop offset="1" stop-color="#2C3E50"/>
</linearGradient>
<linearGradient id="paint5_linear" x1="35.25" y1="25.5" x2="39.75" y2="25.5" gradientUnits="userSpaceOnUse">
<stop stop-color="#BDC3C7"/>
<stop offset="1" stop-color="#2C3E50"/>
</linearGradient>
<linearGradient id="paint6_linear" x1="41.25" y1="22.5" x2="44.25" y2="22.5" gradientUnits="userSpaceOnUse">
<stop stop-color="#BDC3C7"/>
<stop offset="1" stop-color="#2C3E50"/>
</linearGradient>
<linearGradient id="paint7_linear" x1="27.75" y1="34.5" x2="29.25" y2="34.5" gradientUnits="userSpaceOnUse">
<stop stop-color="#BDC3C7"/>
<stop offset="1" stop-color="#2C3E50"/>
</linearGradient>
<linearGradient id="paint8_linear" x1="41.25" y1="33" x2="44.25" y2="33" gradientUnits="userSpaceOnUse">
<stop stop-color="#BDC3C7"/>
<stop offset="1" stop-color="#2C3E50"/>
</linearGradient>
</defs>
</svg>
