<svg width="48" height="48" viewBox="0 0 48 48" fill="none" xmlns="http://www.w3.org/2000/svg">
<path d="M48 12.6562V3.28125C48 1.47197 46.528 0 44.7188 0H27.8438C26.0345 0 24.5625 1.47197 24.5625 3.28125V12.6562C24.5625 14.4655 26.0345 15.9375 27.8438 15.9375H31.6677L30.9646 18.75H23.0938L22.8082 12.4647C22.7054 10.2065 20.8542 8.4375 18.5937 8.4375H10.8439C8.58337 8.4375 6.73219 10.2065 6.62944 12.4647L6.34378 18.75H1.40625C0.629625 18.75 0 19.3796 0 20.1562V44.5312C0 45.3079 0.629625 45.9375 1.40625 45.9375C2.18288 45.9375 2.8125 45.3079 2.8125 44.5312V27.1875H6.00844C6.11081 28.3452 6.59672 29.4245 7.41525 30.2811C8.24756 31.152 9.3255 31.6898 10.5001 31.8342V34.2188C10.5001 35.8688 11.7247 37.2378 13.3126 37.466V40.8455L7.77 42.4291C7.16616 42.6016 6.75 43.1534 6.75 43.7812V46.5938C6.75 47.3704 7.37962 48 8.15625 48C8.93287 48 9.5625 47.3704 9.5625 46.5938V44.8419L13.3125 43.7705V45.6562C13.3125 46.4329 13.9421 47.0625 14.7188 47.0625C15.4954 47.0625 16.125 46.4329 16.125 45.6562V43.7706L19.875 44.842V46.5938C19.875 47.3704 20.5046 48 21.2812 48C22.0579 48 22.6875 47.3704 22.6875 46.5938V43.7812C22.6875 43.1534 22.2713 42.6016 21.6676 42.4291L16.125 40.8456V37.4661C17.7129 37.2379 18.9375 35.8689 18.9375 34.2188V31.8343C20.1121 31.6899 21.19 31.1521 22.0223 30.2812C22.8408 29.4247 23.3268 28.3453 23.4292 27.1876H26.4375V44.5313C26.4375 45.308 27.0671 45.9376 27.8438 45.9376C28.6204 45.9376 29.25 45.308 29.25 44.5313V40.3126H45.1875V44.5313C45.1875 45.308 45.8171 45.9376 46.5938 45.9376C47.3704 45.9376 48 45.308 48 44.5313V20.1562C48 19.3796 47.3704 18.75 46.5938 18.75H41.5979L40.8948 15.9375H44.7188C46.528 15.9375 48 14.4655 48 12.6562ZM6.08803 24.375H2.8125V21.5625H6.21591L6.08803 24.375ZM16.125 34.2188C16.125 34.4772 15.9147 34.6875 15.6562 34.6875H13.7812C13.5228 34.6875 13.3125 34.4772 13.3125 34.2188V31.875H16.125V34.2188ZM19.9889 28.3379C19.5425 28.8052 18.9407 29.0625 18.2945 29.0625H11.1431C10.4969 29.0625 9.89513 28.8052 9.44869 28.3379C9.00216 27.8708 8.77247 27.2578 8.80181 26.6123L9.43903 12.5923C9.47325 11.8397 10.0903 11.25 10.8438 11.25H18.5936C19.3472 11.25 19.9643 11.8397 19.9985 12.5924L20.6357 26.6123C20.6651 27.2579 20.4354 27.8708 19.9889 28.3379ZM45.1875 37.5H29.25V27.1875H45.1875V37.5ZM45.1875 21.5625V24.375H23.3495L23.2216 21.5625H45.1875ZM33.8635 18.75L34.5667 15.9375H37.9958L38.6989 18.75H33.8635ZM27.8438 13.125C27.5853 13.125 27.375 12.9147 27.375 12.6562V3.28125C27.375 3.02278 27.5853 2.8125 27.8438 2.8125H44.7188C44.9772 2.8125 45.1875 3.02278 45.1875 3.28125V12.6562C45.1875 12.9147 44.9772 13.125 44.7188 13.125H27.8438Z" fill="url(#paint0_linear)"/>
<path d="M34.4062 32.8125H40.0312C40.8079 32.8125 41.4375 32.1829 41.4375 31.4062C41.4375 30.6296 40.8079 30 40.0312 30H34.4062C33.6296 30 33 30.6296 33 31.4062C33 32.1829 33.6296 32.8125 34.4062 32.8125Z" fill="url(#paint1_linear)"/>
<defs>
<linearGradient id="paint0_linear" x1="0" y1="24" x2="48" y2="24" gradientUnits="userSpaceOnUse">
<stop stop-color="#BDC3C7"/>
<stop offset="1" stop-color="#2C3E50"/>
</linearGradient>
<linearGradient id="paint1_linear" x1="33" y1="31.4062" x2="41.4375" y2="31.4062" gradientUnits="userSpaceOnUse">
<stop stop-color="#BDC3C7"/>
<stop offset="1" stop-color="#2C3E50"/>
</linearGradient>
</defs>
</svg>
