<svg width="48" height="48" viewBox="0 0 48 48" fill="none" xmlns="http://www.w3.org/2000/svg">
<path d="M10.08 18.2795C10.08 17.4837 10.7242 16.8395 11.52 16.8395H36.48C37.2758 16.8395 37.92 17.4837 37.92 18.2795C37.92 19.0754 37.2758 19.7195 36.48 19.7195H11.52C10.7242 19.7195 10.08 19.0754 10.08 18.2795ZM11.52 35.8408H36.48C37.2758 35.8408 37.92 35.1966 37.92 34.4008C37.92 33.605 37.2758 32.9608 36.48 32.9608H11.52C10.7242 32.9608 10.08 33.605 10.08 34.4008C10.08 35.1966 10.7242 35.8408 11.52 35.8408ZM11.52 25.0254H36.48C37.2758 25.0254 37.92 24.3813 37.92 23.5854C37.92 22.7896 37.2758 22.1454 36.48 22.1454H11.52C10.7242 22.1454 10.08 22.7896 10.08 23.5854C10.08 24.3813 10.7242 25.0254 11.52 25.0254ZM11.52 30.5349H36.48C37.2758 30.5349 37.92 29.8907 37.92 29.0949C37.92 28.299 37.2758 27.6549 36.48 27.6549H11.52C10.7242 27.6549 10.08 28.299 10.08 29.0949C10.08 29.8898 10.7242 30.5349 11.52 30.5349ZM43.68 12.7202V39.9602H46.56C47.3558 39.9602 48 40.6043 48 41.4002C48 42.196 47.3558 42.8402 46.56 42.8402H1.44C0.64416 42.8402 0 42.196 0 41.4002C0 40.6043 0.64416 39.9602 1.44 39.9602H4.32V12.7202H1.44C0.64416 12.7202 0 12.076 0 11.2802V6.60016C0 5.80432 0.64416 5.16016 1.44 5.16016H46.56C47.3558 5.16016 48 5.80432 48 6.60016V11.2802C48 12.076 47.3558 12.7202 46.56 12.7202H43.68ZM40.8 12.7202H7.2V39.9602H40.8V12.7202Z" fill="url(#paint0_linear)"/>
<defs>
<linearGradient id="paint0_linear" x1="0" y1="24.0002" x2="48" y2="24.0002" gradientUnits="userSpaceOnUse">
<stop stop-color="#BDC3C7"/>
<stop offset="1" stop-color="#2C3E50"/>
</linearGradient>
</defs>
</svg>
