<svg width="76" height="73" viewBox="0 0 76 73" fill="none" xmlns="http://www.w3.org/2000/svg">
<g filter="url(#filter0_d)">
<path d="M16.1789 28.9752H20.2055C20.4436 29.834 20.7867 30.6602 21.2278 31.4345L18.3779 34.2833C18.2418 34.4194 18.1653 34.6039 18.1653 34.7967C18.1653 34.9895 18.2418 35.1741 18.3779 35.3102L21.4569 38.39C21.7404 38.673 22.1997 38.673 22.4832 38.39L25.3334 35.5395C26.1077 35.9804 26.9331 36.3237 27.7918 36.5616V40.5881C27.7918 40.989 28.1167 41.3139 28.5176 41.3139H32.8725C33.2734 41.3139 33.5983 40.989 33.5983 40.5881V36.5616C34.4571 36.3237 35.2824 35.9804 36.0567 35.5395L38.9069 38.39C39.1949 38.6622 39.6454 38.6622 39.9332 38.39L43.0128 35.3102C43.1489 35.1741 43.2254 34.9895 43.2254 34.7967C43.2254 34.6039 43.1489 34.4194 43.0128 34.2833L40.1623 31.4345C40.6035 30.6602 40.9465 29.834 41.1847 28.9752H45.2112C45.6121 28.9752 45.937 28.6503 45.937 28.2494V23.8946C45.937 23.494 45.6121 23.1688 45.2112 23.1688H41.1847C40.9465 22.3103 40.6035 21.4841 40.1623 20.7098L43.0122 17.861C43.1483 17.725 43.2249 17.5404 43.2249 17.3476C43.2249 17.1548 43.1483 16.9702 43.0122 16.8341L39.9332 13.7543C39.6497 13.471 39.1904 13.471 38.9069 13.7543L36.0567 16.6048C35.2824 16.1642 34.4568 15.8208 33.5983 15.5827V11.5559C33.5983 11.1553 33.2734 10.8301 32.8725 10.8301H28.5176C28.1167 10.8301 27.7918 11.1553 27.7918 11.5559V15.5827C26.9333 15.8208 26.1077 16.1642 25.3334 16.6048L22.4832 13.7543C22.1952 13.4821 21.7447 13.4821 21.4569 13.7543L18.3773 16.8341C18.2412 16.9702 18.1647 17.1548 18.1647 17.3476C18.1647 17.5404 18.2412 17.725 18.3773 17.861L21.2278 20.7098C20.7867 21.4841 20.4436 22.3103 20.2055 23.1688H16.1789C15.778 23.1688 15.4531 23.494 15.4531 23.8946V28.2494C15.4531 28.6503 15.778 28.9752 16.1789 28.9752ZM16.9047 24.6204H20.7733C21.1144 24.6204 21.4096 24.3831 21.4824 24.05C21.7206 22.963 22.1512 21.927 22.754 20.9914C22.938 20.7044 22.8972 20.3277 22.6559 20.0864L19.9168 17.3473L21.9701 15.2938L24.7086 18.0329C24.9498 18.2747 25.3269 18.3155 25.6144 18.1312C26.5503 17.5288 27.586 17.0981 28.673 16.8597C29.0059 16.7865 29.2434 16.4914 29.2434 16.1503V12.2817H32.1467V16.1503C32.1467 16.4914 32.3843 16.7865 32.7171 16.8597C33.8041 17.0981 34.8398 17.5288 35.7757 18.1312C36.0632 18.3155 36.4403 18.2747 36.6815 18.0329L39.42 15.2938L41.4727 17.3473L38.7342 20.0855C38.4924 20.3271 38.4518 20.7042 38.6361 20.9914C39.2389 21.9275 39.669 22.9632 39.9068 24.0505C39.98 24.3837 40.2751 24.6213 40.6159 24.6213H44.4854V27.5245H40.6159C40.2751 27.5245 39.98 27.7618 39.9068 28.0949C39.669 29.1819 39.2386 30.2176 38.6361 31.1527C38.4521 31.4399 38.4929 31.8167 38.7342 32.0579L41.4733 34.7964L39.42 36.8505L36.6815 34.1112C36.4403 33.8696 36.0632 33.8288 35.7757 34.0131C34.8404 34.6158 33.805 35.0465 32.718 35.2847C32.3845 35.3572 32.1467 35.6527 32.1467 35.9937V39.8623H29.2434V35.9937C29.2434 35.6527 29.0056 35.3572 28.6722 35.2847C27.5851 35.0465 26.5497 34.6158 25.6144 34.0131C25.3269 33.8288 24.9498 33.8696 24.7086 34.1112L21.9701 36.8505L19.9174 34.797L22.6559 32.0585C22.8977 31.8172 22.9383 31.4401 22.754 31.1527C22.1512 30.2168 21.7206 29.1808 21.4824 28.0935C21.4093 27.7604 21.1144 27.5236 20.7733 27.5236H16.9047V24.6204Z" fill="url(#paint0_linear)"/>
<path d="M30.6932 31.8786C33.9001 31.8786 36.4996 29.2793 36.4996 26.0721C36.4996 22.8652 33.9001 20.2656 30.6932 20.2656C27.4863 20.2656 24.8867 22.8652 24.8867 26.0721C24.8901 29.2773 27.488 31.8752 30.6932 31.8786ZM30.6932 21.7172C33.098 21.7172 35.048 23.6673 35.048 26.0721C35.048 28.4772 33.098 30.4269 30.6932 30.4269C28.2884 30.4269 26.3383 28.4772 26.3383 26.0721C26.3409 23.6679 28.2889 21.7198 30.6932 21.7172Z" fill="url(#paint1_linear)"/>
<path d="M30.6948 34.0556C35.1041 34.0556 38.6787 30.4813 38.6787 26.0718C38.6787 21.6625 35.1041 18.0879 30.6948 18.0879C26.2855 18.0879 22.7109 21.6625 22.7109 26.0718C22.7163 30.479 26.2875 34.0505 30.6948 34.0556ZM30.6948 19.5395C34.3026 19.5395 37.2271 22.464 37.2271 26.0718C37.2271 29.6795 34.3026 32.604 30.6948 32.604C27.087 32.604 24.1625 29.6795 24.1625 26.0718C24.1665 22.466 27.0887 19.5435 30.6948 19.5395Z" fill="url(#paint2_linear)"/>
<path d="M56.8241 44.2168V38.4104C56.8241 38.0098 56.4992 37.6846 56.0983 37.6846H54.6467V31.8781C54.6467 31.4775 54.3218 31.1523 53.9209 31.1523H47.3886C46.9877 31.1523 46.6628 31.4775 46.6628 31.8781V37.6846H43.0338C42.6329 37.6846 42.308 38.0098 42.308 38.4104V44.2168H19.0822C17.0788 44.2194 15.4557 45.8425 15.4531 47.8459V49.2975C15.4557 51.3011 17.0788 52.9242 19.0822 52.9265H56.8241C58.8274 52.9242 60.4506 51.3011 60.4531 49.2975V47.8459C60.4506 45.8425 58.8274 44.2194 56.8241 44.2168ZM55.3725 44.2168H50.2918V39.1362H55.3725V44.2168ZM48.1144 32.604H53.1951V37.6846H48.1144V32.604ZM43.7596 39.1362H48.8402V44.2168H43.7596V39.1362ZM59.0015 49.2975C59.0015 50.5002 58.0265 51.4749 56.8241 51.4749H19.0822C17.8798 51.4749 16.9047 50.5002 16.9047 49.2975V47.8459C16.9047 46.6435 17.8798 45.6685 19.0822 45.6685H56.8241C58.0265 45.6685 59.0015 46.6435 59.0015 47.8459V49.2975Z" fill="url(#paint3_linear)"/>
<path d="M37.9509 46.3945C36.7485 46.3945 35.7734 47.3695 35.7734 48.5719C35.7734 49.7746 36.7485 50.7493 37.9509 50.7493C39.1533 50.7493 40.1283 49.7746 40.1283 48.5719C40.1283 47.3695 39.1533 46.3945 37.9509 46.3945ZM37.9509 49.2977C37.55 49.2977 37.2251 48.9728 37.2251 48.5719C37.2251 48.1713 37.55 47.8461 37.9509 47.8461C38.3518 47.8461 38.6767 48.1713 38.6767 48.5719C38.6767 48.9728 38.3518 49.2977 37.9509 49.2977Z" fill="url(#paint4_linear)"/>
<path d="M30.693 46.3945C29.4906 46.3945 28.5156 47.3695 28.5156 48.5719C28.5156 49.7746 29.4906 50.7493 30.693 50.7493C31.8954 50.7493 32.8704 49.7746 32.8704 48.5719C32.8704 47.3695 31.8954 46.3945 30.693 46.3945ZM30.693 49.2977C30.2921 49.2977 29.9672 48.9728 29.9672 48.5719C29.9672 48.1713 30.2921 47.8461 30.693 47.8461C31.0939 47.8461 31.4188 48.1713 31.4188 48.5719C31.4188 48.9728 31.0939 49.2977 30.693 49.2977Z" fill="url(#paint5_linear)"/>
<path d="M45.2087 46.3945C44.0063 46.3945 43.0312 47.3695 43.0312 48.5719C43.0312 49.7746 44.0063 50.7493 45.2087 50.7493C46.411 50.7493 47.3861 49.7746 47.3861 48.5719C47.3861 47.3695 46.411 46.3945 45.2087 46.3945ZM45.2087 49.2977C44.8078 49.2977 44.4829 48.9728 44.4829 48.5719C44.4829 48.1713 44.8078 47.8461 45.2087 47.8461C45.6095 47.8461 45.9345 48.1713 45.9345 48.5719C45.9345 48.9728 45.6095 49.2977 45.2087 49.2977Z" fill="url(#paint6_linear)"/>
<path d="M23.4352 46.3945C22.2328 46.3945 21.2578 47.3695 21.2578 48.5719C21.2578 49.7746 22.2328 50.7493 23.4352 50.7493C24.6376 50.7493 25.6127 49.7746 25.6127 48.5719C25.6127 47.3695 24.6376 46.3945 23.4352 46.3945ZM23.4352 49.2977C23.0343 49.2977 22.7094 48.9728 22.7094 48.5719C22.7094 48.1713 23.0343 47.8461 23.4352 47.8461C23.8361 47.8461 24.161 48.1713 24.161 48.5719C24.161 48.9728 23.8361 49.2977 23.4352 49.2977Z" fill="url(#paint7_linear)"/>
<path d="M52.4665 46.3945C51.2641 46.3945 50.2891 47.3695 50.2891 48.5719C50.2891 49.7746 51.2641 50.7493 52.4665 50.7493C53.6689 50.7493 54.6439 49.7746 54.6439 48.5719C54.6439 47.3695 53.6689 46.3945 52.4665 46.3945ZM52.4665 49.2977C52.0656 49.2977 51.7407 48.9728 51.7407 48.5719C51.7407 48.1713 52.0656 47.8461 52.4665 47.8461C52.8674 47.8461 53.1923 48.1713 53.1923 48.5719C53.1923 48.9728 52.8674 49.2977 52.4665 49.2977Z" fill="url(#paint8_linear)"/>
</g>
<defs>
<filter id="filter0_d" x="-1" y="-2" width="78" height="78" filterUnits="userSpaceOnUse" color-interpolation-filters="sRGB">
<feFlood flood-opacity="0" result="BackgroundImageFix"/>
<feColorMatrix in="SourceAlpha" type="matrix" values="0 0 0 0 0 0 0 0 0 0 0 0 0 0 0 0 0 0 127 0"/>
<feOffset dy="5"/>
<feGaussianBlur stdDeviation="7.5"/>
<feColorMatrix type="matrix" values="0 0 0 0 0.116667 0 0 0 0 0.116667 0 0 0 0 0.116667 0 0 0 0.05 0"/>
<feBlend mode="normal" in2="BackgroundImageFix" result="effect1_dropShadow"/>
<feBlend mode="normal" in="SourceGraphic" in2="effect1_dropShadow" result="shape"/>
</filter>
<linearGradient id="paint0_linear" x1="15.4531" y1="26.072" x2="45.937" y2="26.072" gradientUnits="userSpaceOnUse">
<stop stop-color="#BDC3C7"/>
<stop offset="1" stop-color="#2C3E50"/>
</linearGradient>
<linearGradient id="paint1_linear" x1="24.8867" y1="26.0721" x2="36.4996" y2="26.0721" gradientUnits="userSpaceOnUse">
<stop stop-color="#BDC3C7"/>
<stop offset="1" stop-color="#2C3E50"/>
</linearGradient>
<linearGradient id="paint2_linear" x1="22.7109" y1="26.0718" x2="38.6787" y2="26.0718" gradientUnits="userSpaceOnUse">
<stop stop-color="#BDC3C7"/>
<stop offset="1" stop-color="#2C3E50"/>
</linearGradient>
<linearGradient id="paint3_linear" x1="15.4531" y1="42.0394" x2="60.4531" y2="42.0394" gradientUnits="userSpaceOnUse">
<stop stop-color="#BDC3C7"/>
<stop offset="1" stop-color="#2C3E50"/>
</linearGradient>
<linearGradient id="paint4_linear" x1="35.7734" y1="48.5719" x2="40.1283" y2="48.5719" gradientUnits="userSpaceOnUse">
<stop stop-color="#BDC3C7"/>
<stop offset="1" stop-color="#2C3E50"/>
</linearGradient>
<linearGradient id="paint5_linear" x1="28.5156" y1="48.5719" x2="32.8704" y2="48.5719" gradientUnits="userSpaceOnUse">
<stop stop-color="#BDC3C7"/>
<stop offset="1" stop-color="#2C3E50"/>
</linearGradient>
<linearGradient id="paint6_linear" x1="43.0312" y1="48.5719" x2="47.3861" y2="48.5719" gradientUnits="userSpaceOnUse">
<stop stop-color="#BDC3C7"/>
<stop offset="1" stop-color="#2C3E50"/>
</linearGradient>
<linearGradient id="paint7_linear" x1="21.2578" y1="48.5719" x2="25.6127" y2="48.5719" gradientUnits="userSpaceOnUse">
<stop stop-color="#BDC3C7"/>
<stop offset="1" stop-color="#2C3E50"/>
</linearGradient>
<linearGradient id="paint8_linear" x1="50.2891" y1="48.5719" x2="54.6439" y2="48.5719" gradientUnits="userSpaceOnUse">
<stop stop-color="#BDC3C7"/>
<stop offset="1" stop-color="#2C3E50"/>
</linearGradient>
</defs>
</svg>
