<svg width="48" height="48" viewBox="0 0 48 48" fill="none" xmlns="http://www.w3.org/2000/svg">
<g clip-path="url(#clip0)">
<path d="M46.4988 8.25C45.6704 8.25 44.9989 8.92159 44.9989 9.74993V39.063C40.9766 37.6973 34.9756 36.5523 29.191 36.7785C28.3633 36.8109 27.7185 37.5082 27.7509 38.3359C27.7833 39.1636 28.4813 39.8079 29.3083 39.776C35.7388 39.524 42.4119 41.0733 45.8896 42.6189C46.8802 43.0593 47.9987 42.3327 47.9987 41.2483V9.74993C47.9987 8.92159 47.3272 8.25 46.4988 8.25Z" fill="url(#paint0_linear)"/>
<path d="M4.83057 39.0916C4.06861 38.94 3.45533 38.785 3.00132 38.6564V10.2603C4.84867 10.7135 7.89942 11.2491 12.0009 11.2491C16.9714 11.2491 19.9755 9.73728 24.2957 8.8692C25.1079 8.70599 25.6339 7.91534 25.4708 7.10322C25.3076 6.29111 24.5167 5.76491 23.7048 5.92812C19.2262 6.82799 16.4863 8.24926 12.0009 8.24926C5.6755 8.24926 2.08983 6.86886 2.05852 6.85667C1.07485 6.46303 0.00146484 7.18834 0.00146484 8.24926V39.7477C0.00146484 40.361 0.374853 40.9126 0.944356 41.1403C1.9509 41.5439 4.16667 42.0629 4.53959 42.0629C5.24052 42.0629 5.86702 41.5689 6.00905 40.8553C6.17066 40.0429 5.64297 39.2533 4.83057 39.0916Z" fill="url(#paint1_linear)"/>
<path d="M37.5827 42.9526C35.5631 43.955 33.1337 43.556 31.5376 41.9599C30.9519 41.3741 30.0021 41.3741 29.4164 41.9599C28.8306 42.5456 28.8306 43.4953 29.4164 44.0811C31.9186 46.5834 35.7352 47.2184 38.9162 45.6398C39.6583 45.2715 39.9613 44.3715 39.593 43.6295C39.2248 42.8875 38.3248 42.5843 37.5827 42.9526Z" fill="url(#paint2_linear)"/>
<path d="M32.4981 11.9926C36.8843 15.5498 43.4988 12.4363 43.4988 6.74967C43.4988 3.02788 40.4709 0 36.7492 0C30.4323 0 27.5625 7.98552 32.4981 11.9926ZM36.7492 2.99985C38.8168 2.99985 40.499 4.68202 40.499 6.74967C40.499 9.93617 36.8028 11.6216 34.3882 9.66309C31.6531 7.44264 33.2449 2.99985 36.7492 2.99985Z" fill="url(#paint3_linear)"/>
<path d="M15.0003 34.498C9.35645 34.498 6.24673 41.0132 9.68297 45.4053C13.6334 50.4545 21.75 47.6331 21.75 41.2477C21.75 37.5259 18.7222 34.498 15.0003 34.498ZM16.2121 44.7818C13.0303 45.8787 10.1739 42.6108 11.6429 39.5965C12.2833 38.2825 13.5384 37.4979 15.0003 37.4979C17.068 37.4979 18.7501 39.1801 18.7501 41.2477C18.7501 43.2083 17.4391 44.3588 16.2121 44.7818Z" fill="url(#paint4_linear)"/>
<path d="M25.5002 27.7483H21.0004V25.4984H25.5002C28.8085 25.4984 31.4999 22.807 31.4999 19.4987C31.4999 16.1905 28.8085 13.499 25.5002 13.499H19.5005C18.6721 13.499 18.0006 14.1706 18.0006 14.999V27.7483H16.5007C15.6722 27.7483 15.0007 28.4199 15.0007 29.2483C15.0007 30.0766 15.6722 30.7482 16.5007 30.7482H18.0006V32.2481C18.0006 33.0765 18.6721 33.748 19.5005 33.748C20.3289 33.748 21.0004 33.0765 21.0004 32.2481V30.7482H25.5002C26.3287 30.7482 27.0002 30.0766 27.0002 29.2483C27.0002 28.4199 26.3287 27.7483 25.5002 27.7483ZM28.5001 19.4987C28.5001 21.1529 27.1544 22.4986 25.5002 22.4986H21.0004V16.4989H25.5002C27.1544 16.4989 28.5001 17.8446 28.5001 19.4987Z" fill="url(#paint5_linear)"/>
</g>
<defs>
<linearGradient id="paint0_linear" x1="27.7498" y1="25.4998" x2="47.9987" y2="25.4998" gradientUnits="userSpaceOnUse">
<stop stop-color="#BDC3C7"/>
<stop offset="1" stop-color="#2C3E50"/>
</linearGradient>
<linearGradient id="paint1_linear" x1="0.00146484" y1="23.9806" x2="25.5004" y2="23.9806" gradientUnits="userSpaceOnUse">
<stop stop-color="#BDC3C7"/>
<stop offset="1" stop-color="#2C3E50"/>
</linearGradient>
<linearGradient id="paint2_linear" x1="28.9771" y1="44.0105" x2="39.7497" y2="44.0105" gradientUnits="userSpaceOnUse">
<stop stop-color="#BDC3C7"/>
<stop offset="1" stop-color="#2C3E50"/>
</linearGradient>
<linearGradient id="paint3_linear" x1="29.9973" y1="6.75221" x2="43.4988" y2="6.75221" gradientUnits="userSpaceOnUse">
<stop stop-color="#BDC3C7"/>
<stop offset="1" stop-color="#2C3E50"/>
</linearGradient>
<linearGradient id="paint4_linear" x1="8.24707" y1="41.2489" x2="21.75" y2="41.2489" gradientUnits="userSpaceOnUse">
<stop stop-color="#BDC3C7"/>
<stop offset="1" stop-color="#2C3E50"/>
</linearGradient>
<linearGradient id="paint5_linear" x1="15.0007" y1="23.6235" x2="31.4999" y2="23.6235" gradientUnits="userSpaceOnUse">
<stop stop-color="#BDC3C7"/>
<stop offset="1" stop-color="#2C3E50"/>
</linearGradient>
<clipPath id="clip0">
<rect width="48" height="48" fill="white"/>
</clipPath>
</defs>
</svg>
