<svg width="78" height="78" viewBox="0 0 78 78" fill="none" xmlns="http://www.w3.org/2000/svg">
<g filter="url(#filter0_d)">
<path d="M58.5 46.75H55.5C55.0868 46.75 54.75 46.414 54.75 46V43.6742C56.4593 43.3255 57.75 41.8113 57.75 40V37.12C58.0252 36.0977 58.7153 35.2473 59.5192 34.2693C60.7995 32.7115 62.25 30.946 62.25 28C62.25 23.4513 58.5488 19.75 54 19.75C52.0537 19.75 50.2012 20.4467 48.7365 21.6617C48.6045 17.8292 46.2548 14.4505 42.7335 12.994C42.7402 12.9258 42.75 12.859 42.75 12.7908C42.75 11.6657 41.8342 10.75 40.7092 10.75H37.3575C36.1973 10.75 35.2343 11.6208 35.1188 12.7757L35.0887 13.0735C31.683 14.5705 29.3947 17.9365 29.2635 21.6617C27.7987 20.4467 25.9462 19.75 24 19.75C19.4513 19.75 15.75 23.4513 15.75 28C15.75 30.946 17.2005 32.7115 18.4807 34.2693C19.2847 35.2473 19.9748 36.0977 20.25 37.12V40C20.25 41.8105 21.5408 43.3255 23.25 43.6742V46C23.25 47.2405 24.2595 48.25 25.5 48.25H28.5C28.9132 48.25 29.25 48.586 29.25 49C29.25 49.414 28.9132 49.75 28.5 49.75H19.5C18.2595 49.75 17.25 50.7595 17.25 52C17.25 53.2405 18.2595 54.25 19.5 54.25H22.5C22.9132 54.25 23.25 54.586 23.25 55V57.25H24.75V55C24.75 53.7595 23.7405 52.75 22.5 52.75H19.5C19.0868 52.75 18.75 52.414 18.75 52C18.75 51.586 19.0868 51.25 19.5 51.25H28.5C29.7405 51.25 30.75 50.2405 30.75 49C30.75 47.7595 29.7405 46.75 28.5 46.75H25.5C25.0868 46.75 24.75 46.414 24.75 46V43.6742C26.4593 43.3255 27.75 41.8113 27.75 40V37.12C28.0253 36.0977 28.7152 35.2473 29.5192 34.2693C30.6322 32.9148 31.8713 31.4013 32.1765 29.0935C32.2245 29.1542 32.2717 29.2165 32.319 29.2772C33.1702 30.3662 33.9713 31.402 34.4993 32.665V37C34.4993 37.9765 35.1285 38.8015 35.9993 39.112V39.25C35.9993 40.6443 36.9592 41.8083 38.2493 42.1435V43C38.2493 43.414 37.9125 43.75 37.4993 43.75H35.2493C33.5947 43.75 32.2493 45.0955 32.2493 46.75C32.2493 48.4045 33.5947 49.75 35.2493 49.75H41.9993C43.2397 49.75 44.2493 50.7595 44.2493 52C44.2493 53.2405 43.2397 54.25 41.9993 54.25H40.4993C39.2588 54.25 38.2493 55.2595 38.2493 56.5V57.25H39.7493V56.5C39.7493 56.086 40.086 55.75 40.4993 55.75H41.9993C44.067 55.75 45.7493 54.0677 45.7493 52C45.7493 49.9323 44.067 48.25 41.9993 48.25H35.2493C34.422 48.25 33.7493 47.5773 33.7493 46.75C33.7493 45.9227 34.422 45.25 35.2493 45.25H37.4993C38.7397 45.25 39.7493 44.2405 39.7493 43V42.1435C41.0393 41.8083 41.9993 40.6443 41.9993 39.25V39.112C42.87 38.8015 43.4993 37.9765 43.4993 37V32.6658C44.0273 31.4028 44.8282 30.3678 45.6795 29.278C45.7267 29.2173 45.7747 29.155 45.822 29.0942C46.1273 31.402 47.367 32.9155 48.4792 34.27C49.2832 35.248 49.9733 36.0985 50.2485 37.1208V40C50.2485 41.8105 51.5392 43.3255 53.2485 43.6742V46C53.2485 47.2405 54.258 48.25 55.4985 48.25H58.4985C58.9118 48.25 59.2485 48.586 59.2485 49C59.2485 49.414 58.9118 49.75 58.4985 49.75H49.5C48.2595 49.75 47.25 50.7595 47.25 52C47.25 53.2405 48.2595 54.25 49.5 54.25H52.5C52.9132 54.25 53.25 54.586 53.25 55V57.25H54.75V55C54.75 53.7595 53.7405 52.75 52.5 52.75H49.5C49.0868 52.75 48.75 52.414 48.75 52C48.75 51.586 49.0868 51.25 49.5 51.25H58.5C59.7405 51.25 60.75 50.2405 60.75 49C60.75 47.7595 59.7405 46.75 58.5 46.75ZM51.75 28.75H51C50.5868 28.75 50.25 28.414 50.25 28C50.25 27.586 50.5868 27.25 51 27.25C51.4132 27.25 51.75 27.586 51.75 28V28.75ZM54.75 36.25H53.25V30.25H54.75V36.25ZM56.25 37.75V39.25H51.75V37.75H56.25ZM37.3575 12.25H40.7092C41.0077 12.25 41.25 12.4922 41.25 12.7908C41.25 12.8477 41.2403 12.907 41.2223 12.9618L39.4597 18.25H42.2505C42.5257 18.25 42.75 18.4742 42.75 18.7502C42.75 18.8162 42.7373 18.8808 42.7118 18.9423L39.2887 27.1585C39.234 27.2905 39 27.244 39 27.1V19.75H36.6788C36.3045 19.75 36 19.4455 36.0037 19.0037L36.6112 12.925C36.6495 12.5403 36.9705 12.25 37.3575 12.25ZM21.75 28.75H21C20.5868 28.75 20.25 28.414 20.25 28C20.25 27.586 20.5868 27.25 21 27.25C21.4132 27.25 21.75 27.586 21.75 28V28.75ZM24.75 36.25H23.25V30.25H24.75V36.25ZM26.25 37.75V39.25H21.75V37.75H26.25ZM24 42.25C23.0235 42.25 22.1985 41.6208 21.888 40.75H26.1112C25.8015 41.6208 24.9765 42.25 24 42.25ZM30.75 28C30.75 30.4083 29.535 31.8873 28.3605 33.3175C27.6247 34.2122 26.871 35.1355 26.4525 36.25H26.25V30.25H27C28.2405 30.25 29.25 29.2405 29.25 28C29.25 26.7595 28.2405 25.75 27 25.75C25.7595 25.75 24.75 26.7595 24.75 28V28.75H23.25V28C23.25 26.7595 22.2405 25.75 21 25.75C19.7595 25.75 18.75 26.7595 18.75 28C18.75 29.2405 19.7595 30.25 21 30.25H21.75V36.25H21.5475C21.1297 35.1348 20.3752 34.2122 19.6395 33.3175C18.465 31.8873 17.25 30.4083 17.25 28C17.25 24.2778 20.2785 21.25 24 21.25C26.1735 21.25 28.2098 22.303 29.4788 24.0662C29.7248 25.1755 30.1493 26.1258 30.6698 26.9815C30.72 27.3175 30.75 27.6588 30.75 28ZM26.25 28.75V28C26.25 27.586 26.5868 27.25 27 27.25C27.4132 27.25 27.75 27.586 27.75 28C27.75 28.414 27.4132 28.75 27 28.75H26.25ZM42 34.75H36V33.25H42V34.75ZM39 40.75C38.1728 40.75 37.5 40.0772 37.5 39.25H40.5C40.5 40.0772 39.8272 40.75 39 40.75ZM41.25 37.75H36.75C36.3368 37.75 36 37.414 36 37V36.25H42V37C42 37.414 41.6632 37.75 41.25 37.75ZM44.499 28.354C43.6935 29.3845 42.8767 30.4585 42.2767 31.75H35.724C35.124 30.4585 34.3073 29.3845 33.5018 28.354C32.0865 26.5443 30.75 24.8343 30.75 22C30.75 19.0278 32.3812 16.2857 34.9125 14.8338L34.5105 18.8545C34.503 18.9265 34.5 18.9985 34.5 19.0712C34.5 20.272 35.4773 21.25 36.6788 21.25H37.5V27.1C37.5 28.0098 38.2402 28.75 39.15 28.75C39.819 28.75 40.416 28.3517 40.6725 27.7345L44.0947 19.5197C44.1982 19.2752 44.25 19.0157 44.25 18.7502C44.25 17.647 43.353 16.75 42.2498 16.75H41.5403L42.3097 14.443C45.2925 15.7465 47.25 18.694 47.25 22C47.25 24.8343 45.9135 26.5443 44.499 28.354ZM47.25 28C47.25 27.6588 47.28 27.3175 47.331 26.9823C47.8515 26.1257 48.276 25.1755 48.522 24.0655C49.7902 22.303 51.8265 21.25 54 21.25C57.7215 21.25 60.75 24.2778 60.75 28C60.75 30.4083 59.535 31.8873 58.3605 33.3175C57.6247 34.2122 56.871 35.1355 56.4525 36.25H56.25V30.25H57C58.2405 30.25 59.25 29.2405 59.25 28C59.25 26.7595 58.2405 25.75 57 25.75C55.7595 25.75 54.75 26.7595 54.75 28V28.75H53.25V28C53.25 26.7595 52.2405 25.75 51 25.75C49.7595 25.75 48.75 26.7595 48.75 28C48.75 29.2405 49.7595 30.25 51 30.25H51.75V36.25H51.5475C51.1297 35.1348 50.3753 34.2122 49.6395 33.3175C48.465 31.8873 47.25 30.4083 47.25 28ZM56.25 28.75V28C56.25 27.586 56.5868 27.25 57 27.25C57.4132 27.25 57.75 27.586 57.75 28C57.75 28.414 57.4132 28.75 57 28.75H56.25ZM51.888 40.75H56.1112C55.8008 41.6208 54.9757 42.25 53.9993 42.25C53.0228 42.25 52.1985 41.6208 51.888 40.75Z" fill="url(#paint0_linear)"/>
</g>
<defs>
<filter id="filter0_d" x="0" y="0" width="78" height="78" filterUnits="userSpaceOnUse" color-interpolation-filters="sRGB">
<feFlood flood-opacity="0" result="BackgroundImageFix"/>
<feColorMatrix in="SourceAlpha" type="matrix" values="0 0 0 0 0 0 0 0 0 0 0 0 0 0 0 0 0 0 127 0"/>
<feOffset dy="5"/>
<feGaussianBlur stdDeviation="7.5"/>
<feColorMatrix type="matrix" values="0 0 0 0 0.116667 0 0 0 0 0.116667 0 0 0 0 0.116667 0 0 0 0.05 0"/>
<feBlend mode="normal" in2="BackgroundImageFix" result="effect1_dropShadow"/>
<feBlend mode="normal" in="SourceGraphic" in2="effect1_dropShadow" result="shape"/>
</filter>
<linearGradient id="paint0_linear" x1="15.75" y1="34" x2="62.25" y2="34" gradientUnits="userSpaceOnUse">
<stop stop-color="#BDC3C7"/>
<stop offset="1" stop-color="#2C3E50"/>
</linearGradient>
</defs>
</svg>
