<svg width="48" height="48" viewBox="0 0 48 48" fill="none" xmlns="http://www.w3.org/2000/svg">
<g clip-path="url(#clip0)">
<path d="M45.9481 12.8097C47.3815 11.3763 47.9922 9.47044 47.9922 7.44341C47.9922 5.4162 47.3814 3.51063 45.9481 2.07781L45.9145 2.04427C44.4815 0.610797 42.576 0 40.5487 0C39.0094 0 37.5404 0.277567 36.2946 1.12451H14.1632V2.53015C14.1632 7.18056 17.9466 10.964 22.5971 10.964H26.2627L12.8231 24.4036L11.352 22.6405V19.9099L13.6947 17.0949V10.0269H2.91813V34.3085C1.54388 35.6828 0.457233 37.0589 0.130938 39.0436C-0.26742 41.4666 0.28181 44.1264 2.05722 45.9012C4.94047 48.8204 10.176 48.6215 13.0003 45.7574L30.51 43.7381L29.543 35.3592L22.5971 36.1608L36.9914 21.7664L34.5477 37.6011L43.2017 37.671L43.2244 34.8599L37.8221 34.8161L40.355 18.4028L45.9481 12.8097ZM22.5971 8.1527C19.9819 8.1527 17.7782 6.35817 17.1524 3.93579H33.2909L29.074 8.1527H22.5971ZM5.72941 12.8382H10.8834V16.0782L8.54068 18.8932V23.6593L10.8272 26.3994L5.72941 31.4972V12.8382ZM27.0724 38.4743L27.3948 41.2675L16.1991 42.5587L19.3978 39.3598L27.0724 38.4743ZM10.835 43.9472C8.9933 45.7887 5.92067 45.7896 4.07881 43.9472C2.77204 42.6475 2.29881 40.6828 2.91963 38.9382C3.31415 37.8297 4.12923 37.0727 4.93691 36.2655L37.1703 4.03193C38.0728 3.12951 39.2726 2.63248 40.5487 2.63248C41.8248 2.63248 43.0243 3.12942 43.9265 4.03193L43.9604 4.06585C44.8627 4.9678 45.3597 6.16738 45.3597 7.44341C45.3597 8.71955 44.8626 9.9194 43.9602 10.8218L10.835 43.9472Z" fill="url(#paint0_linear)"/>
<path d="M7.13672 38.1397H9.948V40.951H7.13672V38.1397Z" fill="url(#paint1_linear)"/>
<path d="M38.5312 6.74709H41.3425V9.55836H38.5312V6.74709Z" fill="url(#paint2_linear)"/>
</g>
<defs>
<linearGradient id="paint0_linear" x1="0.0078125" y1="24" x2="47.9922" y2="24" gradientUnits="userSpaceOnUse">
<stop stop-color="#BDC3C7"/>
<stop offset="1" stop-color="#2C3E50"/>
</linearGradient>
<linearGradient id="paint1_linear" x1="7.13672" y1="39.5453" x2="9.948" y2="39.5453" gradientUnits="userSpaceOnUse">
<stop stop-color="#BDC3C7"/>
<stop offset="1" stop-color="#2C3E50"/>
</linearGradient>
<linearGradient id="paint2_linear" x1="38.5312" y1="8.15272" x2="41.3425" y2="8.15272" gradientUnits="userSpaceOnUse">
<stop stop-color="#BDC3C7"/>
<stop offset="1" stop-color="#2C3E50"/>
</linearGradient>
<clipPath id="clip0">
<rect width="48" height="48" fill="white"/>
</clipPath>
</defs>
</svg>
