<svg width="78" height="70" viewBox="0 0 78 70" fill="none" xmlns="http://www.w3.org/2000/svg">
<g clip-path="url(#clip0)" filter="url(#filter0_d)">
<path d="M61.6974 30.2063C61.5535 30.1782 58.9707 29.6785 55.505 29.4229C55.5218 29.1045 55.5307 28.784 55.5307 28.4613C55.5307 18.4918 47.4198 10.3809 37.4503 10.3809C27.4806 10.3809 19.3696 18.4918 19.3696 28.4613C19.3696 30.5632 19.7315 32.5819 20.3938 34.46C18.0821 34.6546 16.4019 34.9796 16.3026 34.9992L15 35.2546L15.5673 36.4546C15.7422 36.8246 19.9115 45.5468 25.1336 48.1853C27.0182 49.1373 28.7808 49.6201 30.3726 49.6203C30.373 49.6203 30.3731 49.6203 30.3734 49.6203C32.7441 49.6203 34.6855 48.5494 35.9071 46.5879C37.5097 48.5028 39.7653 49.5345 42.4345 49.5345C44.5609 49.5345 46.9249 48.885 49.4608 47.6039C56.5205 44.037 62.1945 32.1656 62.4327 31.6619L63 30.4619L61.6974 30.2063ZM52.3464 22.5821C51.6649 22.0242 50.8801 21.502 49.9965 21.0234C48.9029 20.4311 47.6931 19.9267 46.3982 19.5135C45.9851 18.2185 45.4806 17.0086 44.8881 15.9148C44.4096 15.0313 43.8875 14.2465 43.3294 13.565C47.4384 15.1926 50.719 18.4733 52.3464 22.5821ZM53.3312 27.4281H47.6996C47.6403 25.5285 47.4167 23.6837 47.0429 21.9468C50.3987 23.2582 52.7614 25.2215 53.3312 27.4281ZM38.4834 12.5802C40.6902 13.1501 42.6535 15.5129 43.9649 18.8688C42.2279 18.495 40.3833 18.2715 38.4834 18.2121V12.5802ZM38.4834 20.2791C40.705 20.3556 42.8197 20.6764 44.7231 21.1884C45.2352 23.0919 45.5559 25.2065 45.6326 27.428H38.4834V20.2791ZM38.4834 29.4944H45.6326C45.6294 29.5857 45.6259 29.677 45.622 29.768C43.8989 30.0877 42.4097 30.5616 41.1681 31.1888C40.1767 31.6896 39.2816 32.2241 38.4834 32.7906V29.4944ZM36.417 12.5802V18.2121C34.5173 18.2715 32.6725 18.495 30.9355 18.8688C32.2469 15.5129 34.2103 13.1501 36.417 12.5802ZM36.417 20.2791V27.4281H29.2678C29.3443 25.2067 29.6651 23.0919 30.1773 21.1884C32.0806 20.6764 34.1955 20.3557 36.417 20.2791ZM31.5709 13.5653C31.0128 14.2467 30.4907 15.0316 30.0122 15.9151C29.4198 17.0087 28.9153 18.2187 28.5022 19.5137C27.2071 19.9269 25.9974 20.4313 24.9036 21.0237C24.0201 21.5022 23.2352 22.0243 22.5538 22.5823C24.1814 18.4732 27.4619 15.1926 31.5709 13.5653ZM27.8575 21.9467C27.4837 23.6837 27.2601 25.5284 27.2008 27.4281H21.569C22.1388 25.2215 24.5017 23.2582 27.8575 21.9467ZM27.2008 29.4944C27.2562 31.2664 27.454 32.9906 27.7836 34.6243C27.4297 34.5652 27.0633 34.5143 26.6844 34.4722C23.9561 33.186 22.0698 31.4342 21.569 29.4944H27.2008ZM33.6404 46.1743C32.9551 46.9305 31.9211 47.5538 30.3734 47.5538H30.3729C29.1076 47.5537 27.6584 47.1456 26.0654 46.3409C22.5494 44.5643 19.3774 39.2355 18.0693 36.8043C19.3722 36.6179 21.4577 36.3822 23.6713 36.3822C26.6182 36.3822 28.9121 36.7863 30.4895 37.5832C31.9108 38.3011 32.9985 39.1048 33.7446 39.9708C33.5962 41.4771 33.8835 43.0192 34.603 44.531L24.1571 39.64L33.6404 46.1743ZM32.2835 36.2058C32.0073 36.0461 31.7207 35.8901 31.4212 35.7388C30.9968 35.5243 30.5323 35.3352 30.0326 35.169C29.6048 33.4154 29.337 31.4985 29.2678 29.4943H36.417V34.5486C35.803 35.185 35.2907 35.8529 34.8809 36.551C33.9906 36.4739 33.1223 36.3577 32.2835 36.2058ZM48.529 45.7593C46.2848 46.8931 44.2342 47.4679 42.4345 47.4679C40.0335 47.4679 38.4787 46.4425 37.4823 45.2478L51.8287 36.0583L36.563 43.8408C36.5599 43.8346 36.5565 43.8284 36.5534 43.8222C34.5106 39.7782 36.5323 35.8458 42.0999 33.0332C44.3224 31.9104 47.5339 31.3411 51.6453 31.3411C55.0317 31.3411 58.2107 31.7412 59.9427 32.0058C58.3177 35.0973 53.7109 43.1413 48.529 45.7593Z" fill="url(#paint0_linear)"/>
</g>
<defs>
<filter id="filter0_d" x="0" y="-4" width="78" height="78" filterUnits="userSpaceOnUse" color-interpolation-filters="sRGB">
<feFlood flood-opacity="0" result="BackgroundImageFix"/>
<feColorMatrix in="SourceAlpha" type="matrix" values="0 0 0 0 0 0 0 0 0 0 0 0 0 0 0 0 0 0 127 0"/>
<feOffset dy="5"/>
<feGaussianBlur stdDeviation="7.5"/>
<feColorMatrix type="matrix" values="0 0 0 0 0.116667 0 0 0 0 0.116667 0 0 0 0 0.116667 0 0 0 0.05 0"/>
<feBlend mode="normal" in2="BackgroundImageFix" result="effect1_dropShadow"/>
<feBlend mode="normal" in="SourceGraphic" in2="effect1_dropShadow" result="shape"/>
</filter>
<linearGradient id="paint0_linear" x1="15" y1="30.0006" x2="63" y2="30.0006" gradientUnits="userSpaceOnUse">
<stop stop-color="#BDC3C7"/>
<stop offset="1" stop-color="#2C3E50"/>
</linearGradient>
<clipPath id="clip0">
<rect width="48" height="48" fill="white" transform="translate(15 6)"/>
</clipPath>
</defs>
</svg>
