<svg width="78" height="77" viewBox="0 0 78 77" fill="none" xmlns="http://www.w3.org/2000/svg">
<g filter="url(#filter0_d)">
<path d="M47.4792 29.4438L46.9534 28.0391C46.4832 28.2153 46.0062 28.3766 45.5352 28.5191L45.9687 29.9546C46.4704 29.8031 46.9789 29.6313 47.4792 29.4438Z" fill="url(#paint0_linear)"/>
<path d="M42.75 32.7103V30.6942C43.3065 30.605 43.8653 30.4955 44.4195 30.368L44.0813 28.9062C43.3583 29.0743 42.6255 29.2063 41.9032 29.3015L41.25 29.3878V32.711C41.25 32.912 41.2545 33.1123 41.265 33.3118L42.7635 33.2352C42.7545 33.0605 42.75 32.8865 42.75 32.7103Z" fill="url(#paint1_linear)"/>
<path d="M29.25 19.75C26.7682 19.75 24.75 21.7682 24.75 24.25C24.75 26.7318 26.7682 28.75 29.25 28.75C31.7318 28.75 33.75 26.7318 33.75 24.25C33.75 21.7682 31.7318 19.75 29.25 19.75ZM29.25 27.25C27.5955 27.25 26.25 25.9045 26.25 24.25C26.25 22.5955 27.5955 21.25 29.25 21.25C30.9045 21.25 32.25 22.5955 32.25 24.25C32.25 25.9045 30.9045 27.25 29.25 27.25Z" fill="url(#paint2_linear)"/>
<path d="M49.1085 24.0907L48.7507 23.8965L48.393 24.0907C45.522 25.6462 42.2722 26.4795 38.9955 26.499L38.25 26.5035V32.7097C38.25 39.2175 42.3668 45.081 48.4943 47.2995L48.75 47.3917L49.0057 47.2995C55.1332 45.081 59.25 39.2175 59.25 32.7097V26.5035L58.5045 26.499C55.23 26.4795 51.981 25.6462 49.1085 24.0907ZM57.75 32.7097C57.75 38.4975 54.1447 43.7212 48.75 45.7935C43.3553 43.7205 39.75 38.4967 39.75 32.7097V27.981C42.8835 27.8527 45.9727 27.0352 48.7507 25.5982C51.5295 27.0352 54.618 27.8527 57.75 27.981V32.7097Z" fill="url(#paint3_linear)"/>
<path d="M45.7519 33.6894L42.4414 36.9999L47.2519 41.8104L56.5624 32.4999L53.2519 29.1895L47.2519 35.1894L45.7519 33.6894ZM54.4414 32.4999L47.2519 39.6894L44.5624 36.9999L45.7519 35.8104L47.2519 37.3104L53.2519 31.3105L54.4414 32.4999Z" fill="url(#paint4_linear)"/>
<path d="M62.25 23.5H58.6283C55.2578 23.5 51.9945 22.5122 49.1618 20.623L48.7215 20.3673L48.3083 20.6425C46.6005 21.7817 44.7202 22.5887 42.75 23.0492V21.406L40.7738 20.941C40.5248 20.0718 40.1775 19.2347 39.738 18.442L40.8075 16.7148L36.7853 12.6925L35.058 13.762C34.2652 13.3225 33.4283 12.9753 32.559 12.7262L32.094 10.75H26.406L25.941 12.7262C25.0718 12.9753 24.2347 13.3225 23.442 13.762L21.7148 12.6925L17.6925 16.7148L18.762 18.442C18.3225 19.2347 17.9753 20.0718 17.7262 20.941L15.75 21.406V27.094L17.7262 27.559C17.9753 28.4283 18.3225 29.2652 18.762 30.058L17.6925 31.7853L21.7148 35.8075L23.442 34.738C24.2347 35.1775 25.0718 35.5248 25.941 35.7738L26.406 37.75H32.094L32.559 35.7738C33.4283 35.5248 34.2652 35.1775 35.058 34.738L35.4037 34.9518C35.8057 38.194 37.0522 41.2353 38.9625 43.7868L36.4395 53.038L40.143 52.1117L42.9458 56.7835L45.4605 49.2393C46.4385 49.7335 47.4637 50.152 48.5385 50.4685L48.75 50.5315L48.9615 50.4692C50.0363 50.1527 51.0615 49.7342 52.0395 49.24L54.5542 56.7843L57.357 52.1125L61.0605 53.0387L58.5375 43.7875C60.8827 40.654 62.25 36.7885 62.25 32.71V23.5ZM35.0745 32.9845L34.6823 33.223C33.771 33.775 32.787 34.1838 31.755 34.4358L31.308 34.5452L30.906 36.25H27.594L27.1927 34.5452L26.7458 34.4358C25.7137 34.1838 24.7298 33.775 23.8185 33.223L23.4262 32.9845L21.9367 33.9062L19.5945 31.564L20.5163 30.0745L20.2778 29.6823C19.7258 28.771 19.317 27.787 19.065 26.755L18.9555 26.308L17.25 25.906V22.594L18.9547 22.1927L19.0642 21.7458C19.3163 20.7137 19.725 19.7298 20.277 18.8185L20.5155 18.4262L19.5938 16.936L21.936 14.5938L23.4255 15.5155L23.8177 15.277C24.729 14.725 25.713 14.3163 26.745 14.0642L27.192 13.9547L27.594 12.25H30.906L31.3073 13.9547L31.7542 14.0642C32.7863 14.3163 33.7703 14.725 34.6815 15.277L35.0737 15.5155L36.5632 14.5938L38.9055 16.936L37.9837 18.4255L38.2222 18.8177C38.7743 19.729 39.183 20.713 39.435 21.745L39.5445 22.192L41.25 22.594V23.3305C40.4662 23.44 39.6728 23.5 38.8717 23.5H38.2118C37.8285 18.8875 33.96 15.25 29.25 15.25C24.2872 15.25 20.25 19.2872 20.25 24.25C20.25 29.2127 24.2872 33.25 29.25 33.25C31.485 33.25 33.615 32.4107 35.25 30.949V32.7108C35.25 32.8428 35.2635 32.9725 35.2665 33.1038L35.0745 32.9845ZM35.25 23.5V28.7342C33.8347 30.6227 31.6132 31.75 29.25 31.75C25.1145 31.75 21.75 28.3855 21.75 24.25C21.75 20.1145 25.1145 16.75 29.25 16.75C33.132 16.75 36.3345 19.7155 36.7118 23.5H35.25ZM42.5542 53.2157L40.857 50.3875L38.5605 50.9613L40.1348 45.1878C41.2987 46.4635 42.6398 47.5795 44.1278 48.4945L42.5542 53.2157ZM58.9395 50.9613L56.643 50.3875L54.9458 53.2157L53.3722 48.4945C54.8602 47.5795 56.2012 46.4635 57.3652 45.1878L58.9395 50.9613ZM60.75 32.71C60.75 40.1305 55.827 46.7838 48.75 48.967C41.673 46.7838 36.75 40.1305 36.75 32.71V25H38.8717C42.3765 25 45.774 24.0182 48.7493 22.144C51.7103 24.0145 55.116 25 58.6283 25H60.75V32.71Z" fill="url(#paint5_linear)"/>
</g>
<defs>
<filter id="filter0_d" x="0" y="0" width="78" height="78" filterUnits="userSpaceOnUse" color-interpolation-filters="sRGB">
<feFlood flood-opacity="0" result="BackgroundImageFix"/>
<feColorMatrix in="SourceAlpha" type="matrix" values="0 0 0 0 0 0 0 0 0 0 0 0 0 0 0 0 0 0 127 0"/>
<feOffset dy="5"/>
<feGaussianBlur stdDeviation="7.5"/>
<feColorMatrix type="matrix" values="0 0 0 0 0.116667 0 0 0 0 0.116667 0 0 0 0 0.116667 0 0 0 0.05 0"/>
<feBlend mode="normal" in2="BackgroundImageFix" result="effect1_dropShadow"/>
<feBlend mode="normal" in="SourceGraphic" in2="effect1_dropShadow" result="shape"/>
</filter>
<linearGradient id="paint0_linear" x1="45.5352" y1="28.9968" x2="47.4792" y2="28.9968" gradientUnits="userSpaceOnUse">
<stop stop-color="#BDC3C7"/>
<stop offset="1" stop-color="#2C3E50"/>
</linearGradient>
<linearGradient id="paint1_linear" x1="41.25" y1="31.109" x2="44.4195" y2="31.109" gradientUnits="userSpaceOnUse">
<stop stop-color="#BDC3C7"/>
<stop offset="1" stop-color="#2C3E50"/>
</linearGradient>
<linearGradient id="paint2_linear" x1="24.75" y1="24.25" x2="33.75" y2="24.25" gradientUnits="userSpaceOnUse">
<stop stop-color="#BDC3C7"/>
<stop offset="1" stop-color="#2C3E50"/>
</linearGradient>
<linearGradient id="paint3_linear" x1="38.25" y1="35.6441" x2="59.25" y2="35.6441" gradientUnits="userSpaceOnUse">
<stop stop-color="#BDC3C7"/>
<stop offset="1" stop-color="#2C3E50"/>
</linearGradient>
<linearGradient id="paint4_linear" x1="42.4414" y1="35.4999" x2="56.5624" y2="35.4999" gradientUnits="userSpaceOnUse">
<stop stop-color="#BDC3C7"/>
<stop offset="1" stop-color="#2C3E50"/>
</linearGradient>
<linearGradient id="paint5_linear" x1="15.75" y1="33.7671" x2="62.25" y2="33.7671" gradientUnits="userSpaceOnUse">
<stop stop-color="#BDC3C7"/>
<stop offset="1" stop-color="#2C3E50"/>
</linearGradient>
</defs>
</svg>
