<svg width="48" height="48" fill="none" xmlns="http://www.w3.org/2000/svg"><path d="M47.092 37.812l-11.94-11.94c-.608-.608-1.413-.357-1.27-.386-1.3.26-2.491-.54-3.24-1.226l4.92-4.919a9.87 9.87 0 009.555-2.537A9.86 9.86 0 0047.04 5.599a1.407 1.407 0 00-2.264-.388l-4.538 4.54-1.633-.358-.356-1.632 4.539-4.539A1.407 1.407 0 0042.4.96a9.857 9.857 0 00-11.205 1.923 9.871 9.871 0 00-2.536 9.556l-7.116 7.116-9.645-9.644 1.326-1.326a1.407 1.407 0 00-.14-2.112L7.45 2.163a1.406 1.406 0 00-1.848.123L2.286 5.601a1.406 1.406 0 00-.123 1.849l4.31 5.635a1.406 1.406 0 002.11.14l1.327-1.326 9.644 9.644-7.116 7.117a9.87 9.87 0 00-9.556 2.536A9.858 9.858 0 00.96 42.401a1.407 1.407 0 002.263.388l4.539-4.539 1.632.356.357 1.633-4.54 4.539A1.407 1.407 0 005.6 47.04a9.858 9.858 0 0011.204-1.923 9.871 9.871 0 002.537-9.555l4.918-4.918c1.685 1.843 1.227 3.24 1.227 3.24-.09.451.05.932.386 1.267l11.94 11.941a3.102 3.102 0 004.382 0l4.899-4.898a3.097 3.097 0 000-4.383zM5.146 6.72l1.573-1.573 3.38 2.585L7.732 10.1 5.146 6.719zm11.277 28.953a7.05 7.05 0 01-1.608 7.457 7.045 7.045 0 01-5.967 1.99l3.434-3.435c.34-.339.482-.827.38-1.295l-.714-3.265a1.406 1.406 0 00-1.074-1.074l-3.265-.711a1.406 1.406 0 00-1.294.38l-3.433 3.433a7.044 7.044 0 011.989-5.967 7.05 7.05 0 017.458-1.608c.516.195 1.1.07 1.49-.321L31.255 13.82c.39-.39.516-.973.322-1.49a7.05 7.05 0 011.607-7.458 7.043 7.043 0 015.967-1.99l-3.434 3.435a1.406 1.406 0 00-.38 1.294l.712 3.264c.117.537.537.957 1.074 1.074l3.265.714c.468.102.956-.04 1.294-.38l3.435-3.434a7.047 7.047 0 01-1.99 5.967 7.05 7.05 0 01-7.457 1.608 1.406 1.406 0 00-1.49.322L16.744 34.18c-.39.391-.516.974-.321 1.49zm12.231-9.423c.614.572 1.462 1.22 2.487 1.644l-3.25 3.25c-.423-1.026-1.07-1.874-1.643-2.488l2.406-2.406zm16.45 13.957l-4.9 4.898a.287.287 0 01-.404 0L28.854 34.159l5.303-5.303L45.103 39.8a.286.286 0 010 .405z" fill="url(#paint0_linear)"/><defs><linearGradient id="paint0_linear" x1="0" y1="24" x2="48" y2="24" gradientUnits="userSpaceOnUse"><stop stop-color="#BDC3C7"/><stop offset="1" stop-color="#2C3E50"/></linearGradient></defs></svg>