<svg width="49" height="48" viewBox="0 0 49 48" fill="none" xmlns="http://www.w3.org/2000/svg">
<g clip-path="url(#clip0)">
<path d="M33.404 22.0677C33.7713 21.7011 33.7713 21.1056 33.404 20.7394C33.0374 20.3721 32.443 20.3721 32.0757 20.7394C31.7091 21.1056 31.7091 21.7011 32.0757 22.0677C32.443 22.435 33.0374 22.435 33.404 22.0677Z" fill="url(#paint0_linear)"/>
<path d="M0.939335 48.1405H47.1546C47.5344 48.1405 47.8771 47.9119 48.0224 47.5608C48.1677 47.2096 48.0873 46.8056 47.8187 46.537L1.60347 0.322089C1.33488 0.0531306 0.930895 -0.0268597 0.579746 0.118444C0.228963 0.263747 0 0.606091 0 0.986229V47.2012C0 47.72 0.420499 48.1405 0.939335 48.1405ZM1.87867 3.25384L9.43444 10.8096L7.44129 12.8017C7.07436 13.1686 7.07436 13.7634 7.44129 14.1303C7.80749 14.4969 8.40264 14.4976 8.76957 14.1303L10.7627 12.1379L14.7479 16.1235L12.7551 18.1155C12.3882 18.4825 12.3882 19.0772 12.7548 19.4442C13.1213 19.8107 13.7165 19.8115 14.0834 19.4442L16.0766 17.4518L20.0614 21.437L18.069 23.4297C17.7021 23.7963 17.7021 24.3911 18.069 24.758C18.4359 25.125 19.0303 25.125 19.3973 24.758L21.39 22.7652L25.3752 26.7508L23.3828 28.7436C23.0159 29.1102 23.0159 29.705 23.3828 30.0719C23.7498 30.4388 24.3442 30.4388 24.7111 30.0719L26.7039 28.0795L30.6891 32.0643L28.6967 34.0575C28.3297 34.4244 28.3297 35.0192 28.6967 35.3861C29.0636 35.7527 29.6584 35.7527 30.0253 35.3857L32.0174 33.3929L36.0026 37.3782L34.0102 39.3713C33.6436 39.7382 33.6436 40.333 34.0105 40.6996C34.3771 41.0665 34.9722 41.0665 35.3392 40.6996L37.3312 38.7064L44.8866 46.2618H1.87867V3.25384Z" fill="url(#paint1_linear)"/>
<path d="M9.6816 19.5777C9.41301 19.3092 9.00902 19.2288 8.65787 19.3741C8.30709 19.5194 8.07812 19.8621 8.07812 20.2419V39.1232C8.07812 39.6421 8.49862 40.0626 9.01746 40.0626H27.8988C28.2789 40.0626 28.6213 39.834 28.7669 39.4828C28.9122 39.132 28.8315 38.7277 28.5633 38.4591L9.6816 19.5777ZM9.95679 38.1843V22.5099L25.6312 38.1843H9.95679Z" fill="url(#paint2_linear)"/>
<path d="M29.4209 19.4113C29.7878 19.7782 30.3823 19.7782 30.7496 19.4113C31.1161 19.0447 31.1161 18.4499 30.7496 18.083L26.7636 14.0974C26.3971 13.7305 25.8023 13.7305 25.4354 14.0974C25.0684 14.464 25.0684 15.0588 25.4354 15.4257L29.4209 19.4113Z" fill="url(#paint3_linear)"/>
<path d="M14.2596 9.6205L40.627 35.9875C41.7277 37.0891 43.511 37.0891 44.6125 35.9875L47.2691 33.3314C48.3673 32.2331 48.3673 30.4451 47.2691 29.3454L20.902 2.97838C20.7989 2.87527 20.6731 2.79748 20.5347 2.75162L12.5643 0.0950598C12.2271 -0.0172201 11.8547 0.0704756 11.6034 0.322188C11.3516 0.573533 11.264 0.945598 11.3762 1.28317L14.0328 9.25357C14.079 9.3919 14.1564 9.51739 14.2596 9.6205ZM45.9401 30.6737C46.3066 31.0403 46.3066 31.6369 45.9404 32.0027L43.2843 34.6593C42.9173 35.0262 42.3225 35.0266 41.9552 34.6593L39.9199 32.6239L43.9051 28.6384L45.9401 30.6737ZM42.5768 27.3101L38.5913 31.2956L37.263 29.967L41.2485 25.9822L42.5768 27.3101ZM20.8595 5.59274L39.9199 24.6532L35.9347 28.6387L16.8739 9.57794L20.8595 5.59274ZM19.431 4.3639L15.6451 8.14949L13.7525 2.47128L19.431 4.3639Z" fill="url(#paint4_linear)"/>
</g>
<defs>
<linearGradient id="paint0_linear" x1="31.8008" y1="21.4036" x2="33.6794" y2="21.4036" gradientUnits="userSpaceOnUse">
<stop stop-color="#BDC3C7"/>
<stop offset="1" stop-color="#2C3E50"/>
</linearGradient>
<linearGradient id="paint1_linear" x1="0" y1="24.0937" x2="48.0939" y2="24.0937" gradientUnits="userSpaceOnUse">
<stop stop-color="#BDC3C7"/>
<stop offset="1" stop-color="#2C3E50"/>
</linearGradient>
<linearGradient id="paint2_linear" x1="8.07812" y1="29.6826" x2="28.8383" y2="29.6826" gradientUnits="userSpaceOnUse">
<stop stop-color="#BDC3C7"/>
<stop offset="1" stop-color="#2C3E50"/>
</linearGradient>
<linearGradient id="paint3_linear" x1="25.1602" y1="16.7543" x2="31.0245" y2="16.7543" gradientUnits="userSpaceOnUse">
<stop stop-color="#BDC3C7"/>
<stop offset="1" stop-color="#2C3E50"/>
</linearGradient>
<linearGradient id="paint4_linear" x1="11.3281" y1="18.4303" x2="48.0928" y2="18.4303" gradientUnits="userSpaceOnUse">
<stop stop-color="#BDC3C7"/>
<stop offset="1" stop-color="#2C3E50"/>
</linearGradient>
<clipPath id="clip0">
<rect width="48.0939" height="48" fill="white"/>
</clipPath>
</defs>
</svg>
