<svg width="24" height="24" fill="none" xmlns="http://www.w3.org/2000/svg"><path d="M14.199 12.02l9.345-9.346a1.553 1.553 0 000-2.199 1.553 1.553 0 00-2.199 0L12 9.821 2.655.475a1.553 1.553 0 00-2.199 0 1.553 1.553 0 000 2.2l9.345 9.345-9.345 9.345a1.553 1.553 0 001.1 2.654 1.55 1.55 0 001.099-.455L12 14.218l9.345 9.346a1.55 1.55 0 002.199 0 1.553 1.553 0 000-2.2l-9.345-9.345z" fill="url(#paint0_linear)"/><defs><linearGradient id="paint0_linear" x1="0" y1="12.019" x2="24" y2="12.019" gradientUnits="userSpaceOnUse"><stop stop-color="#BDC3C7"/><stop offset="1" stop-color="#2C3E50"/></linearGradient></defs></svg>