<svg width="54" height="52" fill="none" xmlns="http://www.w3.org/2000/svg"><g filter="url(#filter0_d)" fill-opacity=".65"><path d="M35.145 10.617H18.832a3.097 3.097 0 00-3.094 3.093v9.984a3.097 3.097 0 003.083 3.093v4.53l6.51-4.53h9.814a3.097 3.097 0 003.093-3.093V13.71a3.097 3.097 0 00-3.093-3.094zm1.775 13.077c0 .979-.796 1.775-1.775 1.775H24.918l-4.779 3.325V25.47h-1.307a1.777 1.777 0 01-1.775-1.775V13.71c0-.98.796-1.776 1.775-1.776h16.313c.979 0 1.775.797 1.775 1.775v9.984z" fill="url(#paint0_linear)"/><path d="M21.762 15.275h10.456v1.319H21.762v-1.319z" fill="url(#paint1_linear)"/><path d="M21.762 18.088h10.456v1.318H21.762v-1.318z" fill="url(#paint2_linear)"/><path d="M21.762 20.9h10.456v1.319H21.762V20.9z" fill="url(#paint3_linear)"/></g><defs><linearGradient id="paint0_linear" x1="15.738" y1="20.967" x2="38.238" y2="20.967" gradientUnits="userSpaceOnUse"><stop stop-color="#BDC3C7"/><stop offset="1" stop-color="#2C3E50"/></linearGradient><linearGradient id="paint1_linear" x1="21.762" y1="15.935" x2="32.218" y2="15.935" gradientUnits="userSpaceOnUse"><stop stop-color="#BDC3C7"/><stop offset="1" stop-color="#2C3E50"/></linearGradient><linearGradient id="paint2_linear" x1="21.762" y1="18.747" x2="32.218" y2="18.747" gradientUnits="userSpaceOnUse"><stop stop-color="#BDC3C7"/><stop offset="1" stop-color="#2C3E50"/></linearGradient><linearGradient id="paint3_linear" x1="21.762" y1="21.56" x2="32.218" y2="21.56" gradientUnits="userSpaceOnUse"><stop stop-color="#BDC3C7"/><stop offset="1" stop-color="#2C3E50"/></linearGradient><filter id="filter0_d" x="0" y="-1" width="54" height="54" filterUnits="userSpaceOnUse" color-interpolation-filters="sRGB"><feFlood flood-opacity="0" result="BackgroundImageFix"/><feColorMatrix in="SourceAlpha" values="0 0 0 0 0 0 0 0 0 0 0 0 0 0 0 0 0 0 127 0"/><feOffset dy="5"/><feGaussianBlur stdDeviation="7.5"/><feColorMatrix values="0 0 0 0 0.116667 0 0 0 0 0.116667 0 0 0 0 0.116667 0 0 0 0.05 0"/><feBlend in2="BackgroundImageFix" result="effect1_dropShadow"/><feBlend in="SourceGraphic" in2="effect1_dropShadow" result="shape"/></filter></defs></svg>