<svg width="48" height="48" viewBox="0 0 48 48" fill="none" xmlns="http://www.w3.org/2000/svg">
<g clip-path="url(#clip0)">
<path d="M37.9354 29.7352C36.9527 28.712 35.7674 28.165 34.5112 28.165C33.2651 28.165 32.0697 28.7019 31.0465 29.7251L27.8452 32.9163C27.5818 32.7744 27.3184 32.6427 27.0651 32.511C26.7004 32.3287 26.356 32.1565 26.0622 31.9741C23.0635 30.0695 20.3383 27.5875 17.7246 24.3761C16.4582 22.7754 15.6072 21.428 14.9893 20.0604C15.82 19.3006 16.5899 18.5104 17.3396 17.7506C17.6233 17.4669 17.9069 17.1731 18.1906 16.8894C20.318 14.762 20.318 12.0064 18.1906 9.87898L15.4249 7.1133C15.1108 6.79924 14.7867 6.47506 14.4827 6.15088C13.8749 5.52277 13.2367 4.8744 12.5782 4.26656C11.5955 3.29401 10.4203 2.77734 9.18437 2.77734C7.94842 2.77734 6.75299 3.29401 5.73992 4.26656C5.72979 4.27669 5.72979 4.27669 5.71966 4.28682L2.27521 7.76166C0.978477 9.0584 0.238934 10.6388 0.0768427 12.4725C-0.166295 15.4306 0.704948 18.1862 1.37358 19.9895C3.01475 24.4166 5.46639 28.5195 9.12358 32.9163C13.5608 38.2146 18.8997 42.3986 24.9984 45.3467C27.3285 46.4509 30.4386 47.7578 33.9135 47.9807C34.1262 47.9908 34.3491 48.0009 34.5517 48.0009C36.8919 48.0009 38.8573 47.1601 40.3971 45.4885C40.4073 45.4682 40.4275 45.4581 40.4377 45.4378C40.9645 44.7996 41.5723 44.2222 42.2105 43.6042C42.6462 43.1888 43.0919 42.7532 43.5275 42.2973C44.5305 41.2539 45.0573 40.0382 45.0573 38.7921C45.0573 37.5359 44.5203 36.3303 43.4971 35.3172L37.9354 29.7352ZM41.5622 40.4029C41.552 40.4029 41.552 40.413 41.5622 40.4029C41.1671 40.8284 40.7618 41.2133 40.3262 41.6388C39.6677 42.2669 38.9991 42.9254 38.371 43.665C37.3478 44.7591 36.1422 45.2757 34.5618 45.2757C34.4099 45.2757 34.2478 45.2757 34.0958 45.2656C31.087 45.0731 28.2909 43.898 26.1939 42.895C20.4599 40.1192 15.4249 36.1784 11.2409 31.1839C7.78633 27.0202 5.47652 23.1705 3.94678 19.0372C3.00462 16.5146 2.66018 14.5493 2.81214 12.6953C2.91345 11.51 3.36933 10.5274 4.21018 9.6865L7.66476 6.23192C8.16116 5.76591 8.68796 5.51264 9.20463 5.51264C9.84287 5.51264 10.3595 5.89761 10.6837 6.22179C10.6938 6.23192 10.704 6.24205 10.7141 6.25218C11.3321 6.82964 11.9197 7.42735 12.5376 8.06558C12.8517 8.38977 13.1759 8.71395 13.5001 9.04826L16.2657 11.814C17.3396 12.8878 17.3396 13.8806 16.2657 14.9545C15.972 15.2483 15.6883 15.5421 15.3945 15.8257C14.5435 16.697 13.7331 17.5074 12.8517 18.2976C12.8314 18.3179 12.8112 18.328 12.801 18.3483C11.9298 19.2195 12.0919 20.0705 12.2742 20.6479C12.2844 20.6783 12.2945 20.7087 12.3046 20.7391C13.0239 22.4816 14.037 24.1228 15.5769 26.078L15.587 26.0882C18.3831 29.5326 21.3311 32.2172 24.5831 34.2738C24.9984 34.5372 25.4239 34.7499 25.8292 34.9525C26.1939 35.1349 26.5383 35.3071 26.8321 35.4895C26.8726 35.5097 26.9131 35.5401 26.9537 35.5604C27.2981 35.7326 27.6223 35.8137 27.9566 35.8137C28.7975 35.8137 29.3243 35.2868 29.4965 35.1146L32.9612 31.6499C33.3056 31.3055 33.8527 30.8901 34.4909 30.8901C35.119 30.8901 35.6357 31.2852 35.9498 31.6297C35.9599 31.6398 35.9599 31.6398 35.97 31.6499L41.552 37.232C42.5955 38.2653 42.5955 39.329 41.5622 40.4029Z" fill="url(#paint0_linear)" fill-opacity="0.65"/>
<path d="M25.9422 11.4162C28.5964 11.862 31.0075 13.1182 32.9323 15.043C34.8572 16.9678 36.1033 19.379 36.5591 22.0332C36.6706 22.7018 37.248 23.1679 37.9065 23.1679C37.9876 23.1679 38.0585 23.1577 38.1395 23.1476C38.8892 23.026 39.3856 22.3169 39.264 21.5672C38.717 18.3558 37.1974 15.428 34.8774 13.108C32.5575 10.7881 29.6297 9.26849 26.4183 8.72144C25.6686 8.59987 24.9696 9.09627 24.8379 9.83582C24.7062 10.5754 25.1925 11.2946 25.9422 11.4162Z" fill="url(#paint1_linear)" fill-opacity="0.65"/>
<path d="M47.9446 21.1738C47.043 15.8856 44.5509 11.0735 40.7214 7.24406C36.892 3.41464 32.0799 0.922485 26.7917 0.0208505C26.0521 -0.110849 25.3531 0.395687 25.2214 1.13523C25.0999 1.8849 25.5963 2.58392 26.3459 2.71562C31.0669 3.51595 35.3724 5.75484 38.7966 9.1689C42.2208 12.5931 44.4495 16.8986 45.2499 21.6196C45.3613 22.2882 45.9388 22.7542 46.5973 22.7542C46.6783 22.7542 46.7492 22.7441 46.8303 22.7339C47.5698 22.6225 48.0763 21.9134 47.9446 21.1738Z" fill="url(#paint2_linear)" fill-opacity="0.65"/>
</g>
<defs>
<linearGradient id="paint0_linear" x1="0.0351562" y1="25.3891" x2="45.0573" y2="25.3891" gradientUnits="userSpaceOnUse">
<stop stop-color="#BDC3C7"/>
<stop offset="1" stop-color="#2C3E50"/>
</linearGradient>
<linearGradient id="paint1_linear" x1="24.8164" y1="15.9355" x2="39.2823" y2="15.9355" gradientUnits="userSpaceOnUse">
<stop stop-color="#BDC3C7"/>
<stop offset="1" stop-color="#2C3E50"/>
</linearGradient>
<linearGradient id="paint2_linear" x1="25.2031" y1="11.3771" x2="47.9655" y2="11.3771" gradientUnits="userSpaceOnUse">
<stop stop-color="#BDC3C7"/>
<stop offset="1" stop-color="#2C3E50"/>
</linearGradient>
<clipPath id="clip0">
<rect width="48" height="48" fill="white"/>
</clipPath>
</defs>
</svg>
