<svg width="23" height="23" fill="none" xmlns="http://www.w3.org/2000/svg"><path d="M18.966 13.868c-.492-.512-1.084-.786-1.712-.786-.623 0-1.221.269-1.733.78l-1.6 1.596c-.132-.07-.264-.137-.39-.203a6.464 6.464 0 01-.502-.268c-1.5-.952-2.862-2.193-4.169-3.799-.633-.8-1.058-1.474-1.367-2.158.415-.38.8-.775 1.175-1.155.142-.142.284-.288.425-.43 1.064-1.064 1.064-2.442 0-3.506L7.71 2.557c-.157-.157-.319-.32-.47-.482a23.922 23.922 0 00-.953-.942C5.796.647 5.208.39 4.59.39c-.618 0-1.215.258-1.722.744l-.01.01-1.722 1.738a3.706 3.706 0 00-1.1 2.355c-.121 1.48.315 2.857.649 3.759.82 2.213 2.046 4.265 3.875 6.463 2.218 2.65 4.888 4.741 7.937 6.215 1.165.553 2.72 1.206 4.458 1.317.106.005.218.01.319.01 1.17 0 2.153-.42 2.923-1.256.005-.01.015-.015.02-.025.263-.32.567-.608.886-.917.218-.208.441-.425.659-.653.501-.522.765-1.13.765-1.753 0-.628-.269-1.23-.78-1.737l-2.781-2.791zm1.813 5.333c-.005 0-.005.005 0 0-.197.213-.4.406-.618.618-.33.315-.663.644-.978 1.014-.511.547-1.114.805-1.904.805-.076 0-.157 0-.233-.005-1.505-.096-2.902-.684-3.951-1.185-2.867-1.388-5.385-3.359-7.477-5.856-1.727-2.082-2.882-4.007-3.647-6.073-.47-1.262-.643-2.244-.567-3.171.05-.593.279-1.084.7-1.505L3.83 2.116c.249-.233.512-.36.77-.36.32 0 .578.193.74.355l.015.015c.31.289.603.588.912.907.157.162.319.324.481.491l1.383 1.383c.537.537.537 1.033 0 1.57-.147.147-.289.294-.436.436-.425.435-.83.84-1.271 1.236-.01.01-.02.015-.025.025-.436.436-.355.861-.264 1.15l.015.046c.36.87.867 1.691 1.636 2.669l.006.005c1.398 1.722 2.872 3.065 4.498 4.093.207.132.42.238.623.34.182.09.354.177.501.268.02.01.04.025.06.035.173.086.335.127.502.127.42 0 .684-.264.77-.35l1.733-1.732c.172-.172.445-.38.765-.38.314 0 .572.198.729.37l.01.01 2.791 2.791c.522.517.522 1.049.005 1.585z" fill="url(#paint0_linear)" fill-opacity=".65"/><defs><linearGradient id="paint0_linear" x1=".016" y1="11.695" x2="22.527" y2="11.695" gradientUnits="userSpaceOnUse"><stop stop-color="#BDC3C7"/><stop offset="1" stop-color="#2C3E50"/></linearGradient></defs></svg>