<svg width="20" height="24" fill="none" xmlns="http://www.w3.org/2000/svg"><path d="M15.048 11.598a7.229 7.229 0 01-1.108 1.126 7.95 7.95 0 014.005 6.898c0 1.593-3.49 2.84-7.946 2.84-4.455 0-7.946-1.247-7.946-2.84a7.95 7.95 0 014.005-6.898 7.267 7.267 0 01-1.108-1.126 9.485 9.485 0 00-4.434 8.024c0 1.022.56 2.447 3.226 3.429 1.664.612 3.886.95 6.257.95 2.372 0 4.594-.338 6.257-.95 2.667-.982 3.227-2.407 3.227-3.43a9.485 9.485 0 00-4.435-8.023z" fill="url(#paint0_linear)" fill-opacity=".65"/><path d="M9.997 12.61c2.99 0 5.29-2.888 5.29-6.305S12.986 0 9.998 0s-5.29 2.889-5.29 6.305c0 3.418 2.303 6.306 5.29 6.306zm0-11.072c2.07 0 3.753 2.139 3.753 4.767 0 2.629-1.684 4.768-3.753 4.768S6.245 8.934 6.245 6.305c0-2.628 1.683-4.767 3.752-4.767z" fill="url(#paint1_linear)" fill-opacity=".65"/><defs><linearGradient id="paint0_linear" x1=".516" y1="17.799" x2="19.483" y2="17.799" gradientUnits="userSpaceOnUse"><stop stop-color="#BDC3C7"/><stop offset="1" stop-color="#2C3E50"/></linearGradient><linearGradient id="paint1_linear" x1="4.707" y1="6.305" x2="15.288" y2="6.305" gradientUnits="userSpaceOnUse"><stop stop-color="#BDC3C7"/><stop offset="1" stop-color="#2C3E50"/></linearGradient></defs></svg>