<svg width="48" height="48" viewBox="0 0 48 48" fill="none" xmlns="http://www.w3.org/2000/svg">
<path d="M47.0918 37.8123L35.1513 25.8713C34.5436 25.2635 33.7387 25.5151 33.8822 25.4865C32.5821 25.7456 31.3906 24.9452 30.6427 24.2603L35.5618 19.3411C38.9432 20.2617 42.608 19.3124 45.1165 16.8038C48.0619 13.8583 48.8347 9.35538 47.0397 5.5991C46.6214 4.72385 45.4617 4.52585 44.7765 5.21107L40.2376 9.75007L38.6052 9.39307L38.2492 7.76098L42.7878 3.22226C43.4738 2.53629 43.2739 1.37679 42.3996 0.958943C38.642 -0.836464 34.1392 -0.0635888 31.1953 2.88213C28.6869 5.3906 27.7379 9.05595 28.6587 12.4379L21.5425 19.5544L11.8984 9.90992L13.2242 8.58401C13.8255 7.98288 13.7591 6.98867 13.0841 6.47248L7.44944 2.16344C6.88947 1.73529 6.09915 1.78779 5.60078 2.28616L2.28615 5.60088C1.78778 6.09926 1.73528 6.88966 2.16344 7.44954L6.47237 13.0845C6.98828 13.7593 7.98184 13.8265 8.58381 13.2246L9.90962 11.8988L19.5537 21.5433L12.4375 28.6597C9.05528 27.7389 5.3904 28.6879 2.88231 31.1961C-0.0635024 34.1405 -0.836471 38.6434 0.958841 42.401C1.37687 43.2761 2.53656 43.4745 3.22206 42.7891L7.76059 38.2504L9.39259 38.6063L9.74969 40.2388L5.21078 44.7779C4.525 45.4637 4.72422 46.6233 5.59881 47.0411C9.35612 48.837 13.8587 48.0626 16.8032 45.1179C19.3118 42.6093 20.261 38.9443 19.3405 35.5628L24.2584 30.6447C25.9427 32.4879 25.4854 33.8849 25.4854 33.8849C25.3958 34.3362 25.5356 34.8174 25.8705 35.1524L37.8109 47.0933C39.0193 48.3015 40.9852 48.3015 42.1933 47.0933L47.0916 42.1948C48.3029 40.9837 48.3031 39.0234 47.0918 37.8123ZM5.14553 6.71904L6.71894 5.14563L10.0997 7.73107L7.73087 10.1L5.14553 6.71904ZM16.4228 35.6718C17.3952 38.2524 16.764 41.1797 14.8146 43.1291C13.2241 44.7197 10.9989 45.4234 8.84781 45.1185L12.2822 41.6839C12.6211 41.3452 12.764 40.8571 12.6617 40.389L11.9477 37.1241C11.8304 36.5871 11.4107 36.1676 10.8737 36.0505L7.60947 35.3385C7.14184 35.2362 6.65406 35.3795 6.31543 35.7181L2.88156 39.1521C2.5765 37.001 3.28028 34.775 4.87094 33.1851C6.82019 31.2357 9.74762 30.6048 12.3286 31.5774C12.8453 31.7721 13.4284 31.6464 13.8189 31.2559L31.2549 13.8192C31.6455 13.4286 31.7713 12.8457 31.5765 12.3289C30.6038 9.74764 31.2347 6.8201 33.1844 4.87057C34.7742 3.27982 37.0002 2.57632 39.1509 2.88138L35.717 6.31554C35.3785 6.65407 35.2353 7.14176 35.3374 7.60957L36.0494 10.8739C36.1665 11.4109 36.5859 11.8307 37.1229 11.948L40.3877 12.662C40.8557 12.7642 41.3437 12.6214 41.6825 12.2825L45.1171 8.84801C45.4218 10.9985 44.7181 13.2245 43.1277 14.815C41.1782 16.7645 38.2513 17.3959 35.6705 16.4233C35.1537 16.2286 34.5708 16.3544 34.1803 16.7449C34.0161 16.909 17.17 33.7558 16.7443 34.1814C16.3538 34.572 16.228 35.1549 16.4228 35.6718ZM28.6543 26.2488C29.268 26.8214 30.1157 27.4697 31.1408 27.8931L27.8919 31.1422C27.4684 30.1171 26.8203 29.2688 26.2479 28.6552L28.6543 26.2488ZM45.1031 40.206L40.2048 45.1045C40.0931 45.2161 39.9115 45.2162 39.7998 45.1045L28.8536 34.158L34.1569 28.8545L45.1031 39.801C45.2151 39.9131 45.2152 40.0938 45.1031 40.206Z" fill="url(#paint0_linear)"/>
<defs>
<linearGradient id="paint0_linear" x1="0" y1="24" x2="48.0002" y2="24" gradientUnits="userSpaceOnUse">
<stop stop-color="#BDC3C7"/>
<stop offset="1" stop-color="#2C3E50"/>
</linearGradient>
</defs>
</svg>
