<svg width="48" height="48" viewBox="0 0 48 48" fill="none" xmlns="http://www.w3.org/2000/svg">
<path d="M47.7138 0.286078C47.3325 -0.0953592 46.7137 -0.0953592 46.3326 0.286078L33.5604 13.0581C31.3161 11.4129 28.5506 10.4384 25.5608 10.4384C25.0215 10.4384 24.584 10.8758 24.584 11.4151C24.584 11.9547 25.0215 12.3919 25.5608 12.3919C28.0111 12.3919 30.2851 13.1571 32.1604 14.4582L28.5311 18.0874C27.6372 17.6365 26.6285 17.3809 25.5608 17.3809C25.0215 17.3809 24.584 17.8183 24.584 18.3577C24.584 18.897 25.0215 19.3345 25.5608 19.3345C26.0785 19.3345 26.5762 19.4204 27.0418 19.5769L12.5015 34.1172L10.9995 32.6175C10.8163 32.4347 10.5682 32.332 10.3094 32.332H1.95358V15.6681H10.3094C10.5682 15.6681 10.8163 15.5654 10.9995 15.3825L19.9414 6.45435V22.2093C19.9414 22.7487 20.3788 23.1861 20.9181 23.1861C21.4575 23.1861 21.8949 22.7487 21.8949 22.2093V4.09866C21.8949 3.70371 21.6571 3.34767 21.2923 3.19643C20.9273 3.04535 20.5074 3.12854 20.2279 3.40741L9.90531 13.7145H0.976791C0.43744 13.7145 0 14.152 0 14.6913V33.3086C0 33.848 0.43744 34.2854 0.976791 34.2854H9.90531L11.1201 35.4984L0.2862 46.3325C-0.0952371 46.7139 -0.0952371 47.3324 0.2862 47.7138C0.476837 47.9045 0.726895 47.9999 0.976954 47.9999C1.22701 47.9999 1.47691 47.9045 1.66771 47.7138L12.5028 36.8788L20.2282 44.5925C20.4149 44.7791 20.6647 44.8781 20.9186 44.8781C21.0445 44.8781 21.1716 44.8538 21.2926 44.8035C21.6574 44.6523 21.8953 44.296 21.8953 43.9013V31.8141C21.8953 31.2748 21.4578 30.8373 20.9185 30.8373C20.3791 30.8373 19.9417 31.2748 19.9417 31.8141V41.5456L13.8843 35.4973L28.7668 20.6146C29.665 21.4655 30.2268 22.6679 30.2268 23.9998C30.2268 26.5725 28.1339 28.6656 25.5612 28.6656C25.0218 28.6656 24.5844 29.103 24.5844 29.6424C24.5844 30.1817 25.0218 30.6192 25.5612 30.6192C29.2111 30.6192 32.1804 27.6497 32.1804 23.9998C32.1804 22.1292 31.3993 20.4387 30.1475 19.2339L33.6736 15.7078C35.8285 17.8165 37.1693 20.7539 37.1693 23.9998C37.1693 30.4005 31.9621 35.6078 25.5612 35.6078C25.0218 35.6078 24.5844 36.0451 24.5844 36.5846C24.5844 37.124 25.0218 37.5614 25.5612 37.5614C33.0391 37.5614 39.1229 31.4776 39.1229 23.9998C39.1229 20.2152 37.563 16.7895 35.0543 14.3271L47.714 1.66742C48.0952 1.28599 48.0952 0.667515 47.7138 0.286078Z" fill="url(#paint0_linear)"/>
<defs>
<linearGradient id="paint0_linear" x1="0" y1="23.9999" x2="47.9999" y2="23.9999" gradientUnits="userSpaceOnUse">
<stop stop-color="#BDC3C7"/>
<stop offset="1" stop-color="#2C3E50"/>
</linearGradient>
</defs>
</svg>
