<svg width="54" height="52" viewBox="0 0 54 52" fill="none" xmlns="http://www.w3.org/2000/svg">
<g filter="url(#filter0_d)">
<path d="M35.1449 10.6172H18.8316C17.126 10.6172 15.7383 12.0046 15.7383 13.7105V23.6939C15.7383 25.396 17.1199 26.7812 18.8206 26.7873V31.3176L25.3313 26.7873H35.1449C36.8506 26.7873 38.2383 25.3996 38.2383 23.6939V13.7105C38.2383 12.0046 36.8506 10.6172 35.1449 10.6172ZM36.9199 23.6939C36.9199 24.6725 36.1237 25.4689 35.1449 25.4689H24.9176L20.139 28.7942V25.4689H18.8316C17.8529 25.4689 17.0566 24.6725 17.0566 23.6939V13.7105C17.0566 12.7316 17.8529 11.9355 18.8316 11.9355H35.1449C36.1237 11.9355 36.9199 12.7316 36.9199 13.7105V23.6939Z" fill="url(#paint0_linear)" fill-opacity="0.65"/>
<path d="M21.7617 15.2754H32.2177V16.5937H21.7617V15.2754Z" fill="url(#paint1_linear)" fill-opacity="0.65"/>
<path d="M21.7617 18.0879H32.2177V19.4062H21.7617V18.0879Z" fill="url(#paint2_linear)" fill-opacity="0.65"/>
<path d="M21.7617 20.9004H32.2177V22.2187H21.7617V20.9004Z" fill="url(#paint3_linear)" fill-opacity="0.65"/>
</g>
<defs>
<filter id="filter0_d" x="0" y="-1" width="54" height="54" filterUnits="userSpaceOnUse" color-interpolation-filters="sRGB">
<feFlood flood-opacity="0" result="BackgroundImageFix"/>
<feColorMatrix in="SourceAlpha" type="matrix" values="0 0 0 0 0 0 0 0 0 0 0 0 0 0 0 0 0 0 127 0"/>
<feOffset dy="5"/>
<feGaussianBlur stdDeviation="7.5"/>
<feColorMatrix type="matrix" values="0 0 0 0 0.116667 0 0 0 0 0.116667 0 0 0 0 0.116667 0 0 0 0.05 0"/>
<feBlend mode="normal" in2="BackgroundImageFix" result="effect1_dropShadow"/>
<feBlend mode="normal" in="SourceGraphic" in2="effect1_dropShadow" result="shape"/>
</filter>
<linearGradient id="paint0_linear" x1="15.7383" y1="20.9674" x2="38.2383" y2="20.9674" gradientUnits="userSpaceOnUse">
<stop stop-color="#BDC3C7"/>
<stop offset="1" stop-color="#2C3E50"/>
</linearGradient>
<linearGradient id="paint1_linear" x1="21.7617" y1="15.9346" x2="32.2177" y2="15.9346" gradientUnits="userSpaceOnUse">
<stop stop-color="#BDC3C7"/>
<stop offset="1" stop-color="#2C3E50"/>
</linearGradient>
<linearGradient id="paint2_linear" x1="21.7617" y1="18.7471" x2="32.2177" y2="18.7471" gradientUnits="userSpaceOnUse">
<stop stop-color="#BDC3C7"/>
<stop offset="1" stop-color="#2C3E50"/>
</linearGradient>
<linearGradient id="paint3_linear" x1="21.7617" y1="21.5596" x2="32.2177" y2="21.5596" gradientUnits="userSpaceOnUse">
<stop stop-color="#BDC3C7"/>
<stop offset="1" stop-color="#2C3E50"/>
</linearGradient>
</defs>
</svg>
