<svg width="23" height="23" viewBox="0 0 23 23" fill="none" xmlns="http://www.w3.org/2000/svg">
<path d="M18.9657 13.8676C18.4744 13.356 17.8817 13.0825 17.2536 13.0825C16.6306 13.0825 16.0329 13.3509 15.5213 13.8625L13.9206 15.4581C13.7889 15.3872 13.6572 15.3214 13.5306 15.2555C13.3482 15.1643 13.176 15.0782 13.0291 14.9871C11.5298 14.0348 10.1672 12.7937 8.86033 11.188C8.22716 10.3877 7.80167 9.71401 7.49268 9.03018C7.90804 8.65028 8.29301 8.25518 8.66785 7.87528C8.80968 7.73345 8.95151 7.58655 9.09334 7.44472C10.1571 6.381 10.1571 5.00322 9.09334 3.93949L7.71049 2.55665C7.55347 2.39962 7.39138 2.23753 7.23942 2.07544C6.93549 1.76139 6.61638 1.4372 6.28713 1.13328C5.79579 0.647005 5.20821 0.388672 4.59023 0.388672C3.97226 0.388672 3.37454 0.647005 2.86801 1.13328C2.86294 1.13835 2.86294 1.13835 2.85788 1.14341L1.13565 2.88083C0.487286 3.5292 0.117514 4.31939 0.0364682 5.23623C-0.0851005 6.71531 0.350521 8.09309 0.684835 8.99473C1.50542 11.2083 2.73124 13.2598 4.55984 15.4581C6.77847 18.1073 9.44792 20.1993 12.4973 21.6733C13.6623 22.2255 15.2174 22.8789 16.9548 22.9903C17.0612 22.9954 17.1726 23.0005 17.2739 23.0005C18.444 23.0005 19.4267 22.58 20.1966 21.7442C20.2017 21.7341 20.2118 21.7291 20.2169 21.7189C20.4803 21.3998 20.7842 21.1111 21.1033 20.8021C21.3211 20.5944 21.544 20.3766 21.7618 20.1487C22.2633 19.6269 22.5267 19.0191 22.5267 18.396C22.5267 17.7679 22.2582 17.1652 21.7466 16.6586L18.9657 13.8676ZM20.7791 19.2014C20.7741 19.2014 20.7741 19.2065 20.7791 19.2014C20.5816 19.4142 20.379 19.6067 20.1612 19.8194C19.8319 20.1335 19.4976 20.4627 19.1835 20.8325C18.6719 21.3795 18.0692 21.6379 17.279 21.6379C17.203 21.6379 17.1219 21.6379 17.046 21.6328C15.5415 21.5366 14.1435 20.949 13.095 20.4475C10.228 19.0596 7.7105 17.0892 5.6185 14.592C3.89121 12.5101 2.73631 10.5852 1.97144 8.51858C1.50036 7.25731 1.32814 6.27462 1.40412 5.34766C1.45477 4.75502 1.68271 4.26368 2.10314 3.84325L3.83043 2.11596C4.07863 1.88295 4.34203 1.75632 4.60036 1.75632C4.91948 1.75632 5.17781 1.9488 5.3399 2.1109C5.34497 2.11596 5.35004 2.12103 5.3551 2.12609C5.66409 2.41482 5.95788 2.71367 6.26687 3.03279C6.42389 3.19488 6.58598 3.35698 6.74808 3.52413L8.13092 4.90698C8.66785 5.44391 8.66785 5.94031 8.13092 6.47724C7.98403 6.62414 7.84219 6.77103 7.6953 6.91286C7.26981 7.34848 6.86458 7.75371 6.42389 8.14881C6.41376 8.15894 6.40363 8.16401 6.39857 8.17414C5.96294 8.60976 6.04399 9.03525 6.13517 9.32397C6.14023 9.33917 6.1453 9.35437 6.15036 9.36956C6.51 10.2408 7.01654 11.0614 7.78648 12.039L7.79154 12.0441C9.18958 13.7663 10.6636 15.1086 12.2896 16.1369C12.4973 16.2686 12.71 16.375 12.9126 16.4763C13.095 16.5674 13.2672 16.6536 13.4141 16.7447C13.4344 16.7549 13.4546 16.7701 13.4749 16.7802C13.6471 16.8663 13.8092 16.9068 13.9764 16.9068C14.3968 16.9068 14.6602 16.6434 14.7463 16.5573L16.4786 14.825C16.6509 14.6527 16.9244 14.4451 17.2435 14.4451C17.5576 14.4451 17.8159 14.6426 17.9729 14.8148C17.978 14.8199 17.978 14.8199 17.9831 14.825L20.7741 17.616C21.2958 18.1326 21.2958 18.6645 20.7791 19.2014Z" fill="url(#paint0_linear)" fill-opacity="0.65"/>
<defs>
<linearGradient id="paint0_linear" x1="0.015625" y1="11.6946" x2="22.5267" y2="11.6946" gradientUnits="userSpaceOnUse">
<stop stop-color="#BDC3C7"/>
<stop offset="1" stop-color="#2C3E50"/>
</linearGradient>
</defs>
</svg>
