<svg width="20" height="24" viewBox="0 0 20 24" fill="none" xmlns="http://www.w3.org/2000/svg">
<path d="M15.0483 11.5977C14.7237 12.0064 14.3591 12.3837 13.9403 12.7243C16.3309 14.0956 17.9449 16.6737 17.9449 19.6218C17.9449 21.2147 14.4547 22.4625 9.99918 22.4625C5.54367 22.4625 2.05349 21.2147 2.05349 19.6218C2.05349 16.6737 3.66745 14.0956 6.0581 12.7243C5.63933 12.3837 5.27468 12.0064 4.95005 11.5977C2.28777 13.2789 0.515625 16.2471 0.515625 19.6218C0.515625 20.644 1.07538 22.0687 3.74223 23.0506C5.40573 23.6631 7.62783 24.0004 9.99924 24.0004C12.3706 24.0004 14.5927 23.6631 16.2562 23.0506C18.923 22.0687 19.4828 20.644 19.4828 19.6218C19.4827 16.2471 17.7106 13.2789 15.0483 11.5977Z" fill="url(#paint0_linear)" fill-opacity="0.65"/>
<path d="M9.99734 12.6106C12.9861 12.6106 15.2877 9.72158 15.2877 6.30533C15.2877 2.88751 12.985 0 9.99734 0C7.00854 0 4.70703 2.88904 4.70703 6.30528C4.70703 9.7231 7.00975 12.6106 9.99734 12.6106ZM9.99734 1.53786C12.0664 1.53786 13.7498 3.67651 13.7498 6.30528C13.7498 8.93405 12.0664 11.0727 9.99734 11.0727C7.92827 11.0727 6.2449 8.93405 6.2449 6.30528C6.2449 3.67651 7.92827 1.53786 9.99734 1.53786Z" fill="url(#paint1_linear)" fill-opacity="0.65"/>
<defs>
<linearGradient id="paint0_linear" x1="0.515625" y1="17.799" x2="19.4828" y2="17.799" gradientUnits="userSpaceOnUse">
<stop stop-color="#BDC3C7"/>
<stop offset="1" stop-color="#2C3E50"/>
</linearGradient>
<linearGradient id="paint1_linear" x1="4.70703" y1="6.30531" x2="15.2877" y2="6.30531" gradientUnits="userSpaceOnUse">
<stop stop-color="#BDC3C7"/>
<stop offset="1" stop-color="#2C3E50"/>
</linearGradient>
</defs>
</svg>
