<svg width="48" height="48" viewBox="0 0 48 48" fill="none" xmlns="http://www.w3.org/2000/svg">
<g clip-path="url(#clip0)">
<path d="M5.02 37.9998H3C1.346 37.9998 0 36.6538 0 34.9998V3.0118C0 2.2078 0.314 1.4518 0.884 0.883795C1.456 0.317795 2.176 0.033795 3.016 0.011795L5.004 0.021795C5.558 0.025795 6.002 0.475795 6 1.0278C5.998 1.5778 5.55 2.0218 5 2.0218C4.998 2.0218 4.996 2.0218 4.994 2.0218L3.006 2.0118C2.674 1.9958 2.484 2.1138 2.294 2.3018C2.104 2.4918 2 2.74379 2 3.0118V34.9998C2 35.5518 2.448 35.9998 3 35.9998H5.02C5.572 35.9998 6.02 36.4478 6.02 36.9998C6.02 37.5518 5.572 37.9998 5.02 37.9998Z" fill="url(#paint0_linear)"/>
<path d="M5.02 26H1C0.448 26 0 25.552 0 25C0 24.448 0.448 24 1 24H5.02C5.572 24 6.02 24.448 6.02 25C6.02 25.552 5.572 26 5.02 26Z" fill="url(#paint1_linear)"/>
<path d="M5.00001 14.022C4.99801 14.022 4.99601 14.022 4.99401 14.022L0.994007 14C0.442007 13.998 -0.00199327 13.546 6.73027e-06 12.994C0.00400673 12.444 0.442007 12.094 1.00601 12L5.00601 12.022C5.55801 12.026 6.00201 12.476 6.00001 13.028C5.99801 13.578 5.55001 14.022 5.00001 14.022Z" fill="url(#paint2_linear)"/>
<path d="M45.0115 48.0101H13.0235C12.2195 48.0101 11.4635 47.6961 10.8955 47.1241C10.3295 46.5541 10.0195 45.7962 10.0235 44.9942L10.0335 43.0042C10.0355 42.4542 10.4835 42.0102 11.0335 42.0102H11.0395C11.5915 42.0122 12.0375 42.4642 12.0335 43.0162L12.0235 45.0062C12.0215 45.2742 12.1255 45.5262 12.3135 45.7162C12.5035 45.9062 12.7555 46.0101 13.0235 46.0101H45.0115C45.5635 46.0101 46.0115 45.5622 46.0115 45.0102V42.9902C46.0115 42.4382 46.4595 41.9902 47.0115 41.9902C47.5635 41.9902 48.0115 42.4382 48.0115 42.9902V45.0102C48.0115 46.6641 46.6655 48.0101 45.0115 48.0101Z" fill="url(#paint3_linear)"/>
<path d="M35.0078 48.0101C34.4558 48.0101 34.0078 47.5621 34.0078 47.0101V42.9902C34.0078 42.4382 34.4558 41.9902 35.0078 41.9902C35.5598 41.9902 36.0078 42.4382 36.0078 42.9902V47.0101C36.0078 47.5621 35.5598 48.0101 35.0078 48.0101Z" fill="url(#paint4_linear)"/>
<path d="M23.0078 48.0099C23.0058 48.0099 23.0038 48.0099 23.0018 48.0099C22.4498 48.0079 22.0038 47.5559 22.0078 47.0039L22.0298 43.0039C22.0318 42.4539 22.4798 42.0099 23.0298 42.0099H23.0358C23.5878 42.0119 24.0338 42.4639 24.0298 43.0159L24.0078 47.0159C24.0038 47.5659 23.5578 48.0099 23.0078 48.0099Z" fill="url(#paint5_linear)"/>
<path d="M26 20C25.878 20 25.756 19.978 25.64 19.934L12.64 14.934C12.254 14.786 12 14.414 12 14C12 13.586 12.254 13.214 12.64 13.066L25.64 8.06595C25.872 7.97795 26.126 7.97795 26.358 8.06595L39.358 13.066C39.746 13.214 40 13.586 40 14C40 14.414 39.746 14.786 39.36 14.934L26.36 19.934C26.244 19.978 26.122 20 26 20ZM15.786 14L26 17.928L36.214 14L26 10.072L15.786 14Z" fill="url(#paint6_linear)"/>
<path d="M26 36C25.878 36 25.756 35.978 25.64 35.934L12.64 30.934C12.254 30.786 12 30.414 12 30V14C12 13.448 12.448 13 13 13C13.552 13 14 13.448 14 14V29.314L26 33.93L38 29.314V14C38 13.448 38.448 13 39 13C39.552 13 40 13.448 40 14V30C40 30.414 39.746 30.786 39.36 30.934L26.36 35.934C26.244 35.978 26.122 36 26 36Z" fill="url(#paint7_linear)"/>
<path d="M26 36C25.448 36 25 35.552 25 35V19C25 18.448 25.448 18 26 18C26.552 18 27 18.448 27 19V35C27 35.552 26.552 36 26 36Z" fill="url(#paint8_linear)"/>
</g>
<defs>
<linearGradient id="paint0_linear" x1="0" y1="19.0058" x2="6.02" y2="19.0058" gradientUnits="userSpaceOnUse">
<stop stop-color="#BDC3C7"/>
<stop offset="1" stop-color="#2C3E50"/>
</linearGradient>
<linearGradient id="paint1_linear" x1="0" y1="25" x2="6.02" y2="25" gradientUnits="userSpaceOnUse">
<stop stop-color="#BDC3C7"/>
<stop offset="1" stop-color="#2C3E50"/>
</linearGradient>
<linearGradient id="paint2_linear" x1="0" y1="13.011" x2="6.00001" y2="13.011" gradientUnits="userSpaceOnUse">
<stop stop-color="#BDC3C7"/>
<stop offset="1" stop-color="#2C3E50"/>
</linearGradient>
<linearGradient id="paint3_linear" x1="10.0234" y1="45.0002" x2="48.0115" y2="45.0002" gradientUnits="userSpaceOnUse">
<stop stop-color="#BDC3C7"/>
<stop offset="1" stop-color="#2C3E50"/>
</linearGradient>
<linearGradient id="paint4_linear" x1="34.0078" y1="45.0002" x2="36.0078" y2="45.0002" gradientUnits="userSpaceOnUse">
<stop stop-color="#BDC3C7"/>
<stop offset="1" stop-color="#2C3E50"/>
</linearGradient>
<linearGradient id="paint5_linear" x1="22.0078" y1="45.0099" x2="24.0298" y2="45.0099" gradientUnits="userSpaceOnUse">
<stop stop-color="#BDC3C7"/>
<stop offset="1" stop-color="#2C3E50"/>
</linearGradient>
<linearGradient id="paint6_linear" x1="12" y1="14" x2="40" y2="14" gradientUnits="userSpaceOnUse">
<stop stop-color="#BDC3C7"/>
<stop offset="1" stop-color="#2C3E50"/>
</linearGradient>
<linearGradient id="paint7_linear" x1="12" y1="24.5" x2="40" y2="24.5" gradientUnits="userSpaceOnUse">
<stop stop-color="#BDC3C7"/>
<stop offset="1" stop-color="#2C3E50"/>
</linearGradient>
<linearGradient id="paint8_linear" x1="25" y1="27" x2="27" y2="27" gradientUnits="userSpaceOnUse">
<stop stop-color="#BDC3C7"/>
<stop offset="1" stop-color="#2C3E50"/>
</linearGradient>
<clipPath id="clip0">
<rect width="48" height="48" fill="white"/>
</clipPath>
</defs>
</svg>
