<svg width="48" height="48" viewBox="0 0 48 48" fill="none" xmlns="http://www.w3.org/2000/svg">
<g clip-path="url(#clip0)">
<path d="M46.6974 24.2063C46.5535 24.1782 43.9707 23.6785 40.505 23.4229C40.5218 23.1045 40.5307 22.784 40.5307 22.4613C40.5307 12.4918 32.4198 4.38086 22.4503 4.38086C12.4806 4.38086 4.3696 12.4918 4.3696 22.4613C4.3696 24.5632 4.73147 26.5819 5.39376 28.46C3.08208 28.6546 1.40191 28.9796 1.30256 28.9992L0 29.2546L0.567322 30.4546C0.74222 30.8246 4.91146 39.5468 10.1336 42.1853C12.0182 43.1373 13.7808 43.6201 15.3726 43.6203C15.373 43.6203 15.3731 43.6203 15.3734 43.6203C17.7441 43.6203 19.6855 42.5494 20.9071 40.5879C22.5097 42.5028 24.7653 43.5345 27.4345 43.5345C29.5609 43.5345 31.9249 42.885 34.4608 41.6039C41.5205 38.037 47.1945 26.1656 47.4327 25.6619L48 24.4619L46.6974 24.2063ZM37.3464 16.5821C36.6649 16.0242 35.8801 15.502 34.9965 15.0234C33.9029 14.4311 32.6931 13.9267 31.3982 13.5135C30.9851 12.2185 30.4806 11.0086 29.8881 9.91483C29.4096 9.03134 28.8875 8.24649 28.3294 7.56502C32.4384 9.19262 35.719 12.4733 37.3464 16.5821ZM38.3312 21.4281H32.6996C32.6403 19.5285 32.4167 17.6837 32.0429 15.9468C35.3987 17.2582 37.7614 19.2215 38.3312 21.4281ZM23.4834 6.58016C25.6902 7.15009 27.6535 9.51293 28.9649 12.8688C27.2279 12.495 25.3833 12.2715 23.4834 12.2121V6.58016ZM23.4834 14.2791C25.705 14.3556 27.8197 14.6764 29.7231 15.1884C30.2352 17.0919 30.5559 19.2065 30.6326 21.428H23.4834V14.2791ZM23.4834 23.4944H30.6326C30.6294 23.5857 30.6259 23.677 30.622 23.768C28.8989 24.0877 27.4097 24.5616 26.1681 25.1888C25.1767 25.6896 24.2816 26.2241 23.4834 26.7906V23.4944ZM21.417 6.58016V12.2121C19.5173 12.2715 17.6725 12.495 15.9355 12.8688C17.2469 9.51293 19.2103 7.15009 21.417 6.58016ZM21.417 14.2791V21.4281H14.2678C14.3443 19.2067 14.6651 17.0919 15.1773 15.1884C17.0806 14.6764 19.1955 14.3557 21.417 14.2791ZM16.5709 7.56525C16.0128 8.24673 15.4907 9.03157 15.0122 9.91506C14.4198 11.0087 13.9153 12.2187 13.5022 13.5137C12.2071 13.9269 10.9974 14.4313 9.90357 15.0237C9.02008 15.5022 8.23523 16.0243 7.55376 16.5823C9.18136 12.4732 12.4619 9.19262 16.5709 7.56525ZM12.8575 15.9467C12.4837 17.6837 12.2601 19.5284 12.2008 21.4281H6.56902C7.13883 19.2215 9.50167 17.2582 12.8575 15.9467ZM12.2008 23.4944C12.2562 25.2664 12.454 26.9906 12.7836 28.6243C12.4297 28.5652 12.0633 28.5143 11.6844 28.4722C8.95614 27.186 7.0698 25.4342 6.56902 23.4944H12.2008ZM18.6404 40.1743C17.9551 40.9305 16.9211 41.5538 15.3734 41.5538H15.3729C14.1076 41.5537 12.6584 41.1456 11.0654 40.3409C7.54938 38.5643 4.37742 33.2355 3.06929 30.8043C4.37221 30.6179 6.45771 30.3822 8.67135 30.3822C11.6182 30.3822 13.9121 30.7863 15.4895 31.5832C16.9108 32.3011 17.9985 33.1048 18.7446 33.9708C18.5962 35.4771 18.8835 37.0192 19.603 38.531L9.15708 33.64L18.6404 40.1743ZM17.2835 30.2058C17.0073 30.0461 16.7207 29.8901 16.4212 29.7388C15.9968 29.5243 15.5323 29.3352 15.0326 29.169C14.6048 27.4154 14.337 25.4985 14.2678 23.4943H21.417V28.5486C20.803 29.185 20.2907 29.8529 19.8809 30.551C18.9906 30.4739 18.1223 30.3577 17.2835 30.2058ZM33.529 39.7593C31.2848 40.8931 29.2342 41.4679 27.4345 41.4679C25.0335 41.4679 23.4787 40.4425 22.4823 39.2478L36.8287 30.0583L21.563 37.8408C21.5599 37.8346 21.5565 37.8284 21.5534 37.8222C19.5106 33.7782 21.5323 29.8458 27.0999 27.0332C29.3224 25.9104 32.5339 25.3411 36.6453 25.3411C40.0317 25.3411 43.2107 25.7412 44.9427 26.0058C43.3177 29.0973 38.7109 37.1413 33.529 39.7593Z" fill="url(#paint0_linear)"/>
</g>
<defs>
<linearGradient id="paint0_linear" x1="0" y1="24.0006" x2="48" y2="24.0006" gradientUnits="userSpaceOnUse">
<stop stop-color="#BDC3C7"/>
<stop offset="1" stop-color="#2C3E50"/>
</linearGradient>
<clipPath id="clip0">
<rect width="48" height="48" fill="white"/>
</clipPath>
</defs>
</svg>
