<svg width="48" height="48" viewBox="0 0 48 48" fill="none" xmlns="http://www.w3.org/2000/svg">
<path d="M32.4792 19.4438L31.9534 18.0391C31.4832 18.2153 31.0062 18.3766 30.5352 18.5191L30.9687 19.9546C31.4704 19.8031 31.9789 19.6313 32.4792 19.4438Z" fill="url(#paint0_linear)"/>
<path d="M27.75 22.7103V20.6942C28.3065 20.605 28.8653 20.4955 29.4195 20.368L29.0813 18.9062C28.3583 19.0743 27.6255 19.2063 26.9032 19.3015L26.25 19.3878V22.711C26.25 22.912 26.2545 23.1123 26.265 23.3118L27.7635 23.2352C27.7545 23.0605 27.75 22.8865 27.75 22.7103Z" fill="url(#paint1_linear)"/>
<path d="M14.25 9.75C11.7682 9.75 9.75 11.7682 9.75 14.25C9.75 16.7318 11.7682 18.75 14.25 18.75C16.7318 18.75 18.75 16.7318 18.75 14.25C18.75 11.7682 16.7318 9.75 14.25 9.75ZM14.25 17.25C12.5955 17.25 11.25 15.9045 11.25 14.25C11.25 12.5955 12.5955 11.25 14.25 11.25C15.9045 11.25 17.25 12.5955 17.25 14.25C17.25 15.9045 15.9045 17.25 14.25 17.25Z" fill="url(#paint2_linear)"/>
<path d="M34.1085 14.0907L33.7507 13.8965L33.393 14.0907C30.522 15.6462 27.2722 16.4795 23.9955 16.499L23.25 16.5035V22.7097C23.25 29.2175 27.3668 35.081 33.4943 37.2995L33.75 37.3917L34.0057 37.2995C40.1332 35.081 44.25 29.2175 44.25 22.7097V16.5035L43.5045 16.499C40.23 16.4795 36.981 15.6462 34.1085 14.0907ZM42.75 22.7097C42.75 28.4975 39.1447 33.7212 33.75 35.7935C28.3553 33.7205 24.75 28.4967 24.75 22.7097V17.981C27.8835 17.8527 30.9727 17.0352 33.7507 15.5982C36.5295 17.0352 39.618 17.8527 42.75 17.981V22.7097Z" fill="url(#paint3_linear)"/>
<path d="M30.7519 23.6894L27.4414 26.9999L32.2519 31.8104L41.5624 22.4999L38.2519 19.1895L32.2519 25.1894L30.7519 23.6894ZM39.4414 22.4999L32.2519 29.6894L29.5624 26.9999L30.7519 25.8104L32.2519 27.3104L38.2519 21.3105L39.4414 22.4999Z" fill="url(#paint4_linear)"/>
<path d="M47.25 13.5H43.6283C40.2578 13.5 36.9945 12.5122 34.1618 10.623L33.7215 10.3673L33.3083 10.6425C31.6005 11.7817 29.7202 12.5887 27.75 13.0492V11.406L25.7738 10.941C25.5248 10.0718 25.1775 9.23475 24.738 8.442L25.8075 6.71475L21.7853 2.6925L20.058 3.762C19.2652 3.3225 18.4283 2.97525 17.559 2.72625L17.094 0.75H11.406L10.941 2.72625C10.0718 2.97525 9.23475 3.3225 8.442 3.762L6.71475 2.6925L2.6925 6.71475L3.762 8.442C3.3225 9.23475 2.97525 10.0718 2.72625 10.941L0.75 11.406V17.094L2.72625 17.559C2.97525 18.4283 3.3225 19.2652 3.762 20.058L2.6925 21.7853L6.71475 25.8075L8.442 24.738C9.23475 25.1775 10.0718 25.5248 10.941 25.7738L11.406 27.75H17.094L17.559 25.7738C18.4283 25.5248 19.2652 25.1775 20.058 24.738L20.4037 24.9518C20.8057 28.194 22.0522 31.2353 23.9625 33.7868L21.4395 43.038L25.143 42.1117L27.9458 46.7835L30.4605 39.2393C31.4385 39.7335 32.4637 40.152 33.5385 40.4685L33.75 40.5315L33.9615 40.4692C35.0363 40.1527 36.0615 39.7342 37.0395 39.24L39.5542 46.7843L42.357 42.1125L46.0605 43.0387L43.5375 33.7875C45.8827 30.654 47.25 26.7885 47.25 22.71V13.5ZM20.0745 22.9845L19.6823 23.223C18.771 23.775 17.787 24.1838 16.755 24.4358L16.308 24.5452L15.906 26.25H12.594L12.1927 24.5452L11.7458 24.4358C10.7137 24.1838 9.72975 23.775 8.8185 23.223L8.42625 22.9845L6.93675 23.9062L4.5945 21.564L5.51625 20.0745L5.27775 19.6823C4.72575 18.771 4.317 17.787 4.065 16.755L3.9555 16.308L2.25 15.906V12.594L3.95475 12.1927L4.06425 11.7458C4.31625 10.7137 4.725 9.72975 5.277 8.8185L5.5155 8.42625L4.59375 6.936L6.936 4.59375L8.4255 5.5155L8.81775 5.277C9.729 4.725 10.713 4.31625 11.745 4.06425L12.192 3.95475L12.594 2.25H15.906L16.3073 3.95475L16.7542 4.06425C17.7863 4.31625 18.7703 4.725 19.6815 5.277L20.0737 5.5155L21.5632 4.59375L23.9055 6.936L22.9837 8.4255L23.2222 8.81775C23.7743 9.729 24.183 10.713 24.435 11.745L24.5445 12.192L26.25 12.594V13.3305C25.4662 13.44 24.6728 13.5 23.8717 13.5H23.2118C22.8285 8.8875 18.96 5.25 14.25 5.25C9.28725 5.25 5.25 9.28725 5.25 14.25C5.25 19.2127 9.28725 23.25 14.25 23.25C16.485 23.25 18.615 22.4107 20.25 20.949V22.7108C20.25 22.8428 20.2635 22.9725 20.2665 23.1038L20.0745 22.9845ZM20.25 13.5V18.7342C18.8347 20.6227 16.6132 21.75 14.25 21.75C10.1145 21.75 6.75 18.3855 6.75 14.25C6.75 10.1145 10.1145 6.75 14.25 6.75C18.132 6.75 21.3345 9.7155 21.7118 13.5H20.25ZM27.5542 43.2157L25.857 40.3875L23.5605 40.9613L25.1348 35.1878C26.2987 36.4635 27.6398 37.5795 29.1278 38.4945L27.5542 43.2157ZM43.9395 40.9613L41.643 40.3875L39.9458 43.2157L38.3722 38.4945C39.8602 37.5795 41.2012 36.4635 42.3652 35.1878L43.9395 40.9613ZM45.75 22.71C45.75 30.1305 40.827 36.7838 33.75 38.967C26.673 36.7838 21.75 30.1305 21.75 22.71V15H23.8717C27.3765 15 30.774 14.0182 33.7493 12.144C36.7103 14.0145 40.116 15 43.6283 15H45.75V22.71Z" fill="url(#paint5_linear)"/>
<defs>
<linearGradient id="paint0_linear" x1="30.5352" y1="18.9968" x2="32.4792" y2="18.9968" gradientUnits="userSpaceOnUse">
<stop stop-color="#BDC3C7"/>
<stop offset="1" stop-color="#2C3E50"/>
</linearGradient>
<linearGradient id="paint1_linear" x1="26.25" y1="21.109" x2="29.4195" y2="21.109" gradientUnits="userSpaceOnUse">
<stop stop-color="#BDC3C7"/>
<stop offset="1" stop-color="#2C3E50"/>
</linearGradient>
<linearGradient id="paint2_linear" x1="9.75" y1="14.25" x2="18.75" y2="14.25" gradientUnits="userSpaceOnUse">
<stop stop-color="#BDC3C7"/>
<stop offset="1" stop-color="#2C3E50"/>
</linearGradient>
<linearGradient id="paint3_linear" x1="23.25" y1="25.6441" x2="44.25" y2="25.6441" gradientUnits="userSpaceOnUse">
<stop stop-color="#BDC3C7"/>
<stop offset="1" stop-color="#2C3E50"/>
</linearGradient>
<linearGradient id="paint4_linear" x1="27.4414" y1="25.4999" x2="41.5624" y2="25.4999" gradientUnits="userSpaceOnUse">
<stop stop-color="#BDC3C7"/>
<stop offset="1" stop-color="#2C3E50"/>
</linearGradient>
<linearGradient id="paint5_linear" x1="0.75" y1="23.7671" x2="47.25" y2="23.7671" gradientUnits="userSpaceOnUse">
<stop stop-color="#BDC3C7"/>
<stop offset="1" stop-color="#2C3E50"/>
</linearGradient>
</defs>
</svg>
