<svg width="48" height="48" fill="none" xmlns="http://www.w3.org/2000/svg"><path d="M47.714.286a.977.977 0 00-1.381 0L33.56 13.058a13.487 13.487 0 00-8-2.62.977.977 0 000 1.954c2.451 0 4.725.765 6.6 2.066l-3.629 3.63a6.577 6.577 0 00-2.97-.707.977.977 0 000 1.953 4.64 4.64 0 011.48.243l-14.54 14.54-1.502-1.5a.977.977 0 00-.69-.285H1.954V15.668h8.355a.977.977 0 00.69-.285l8.942-8.929V22.21a.977.977 0 001.954 0V4.1a.977.977 0 00-1.667-.692L9.905 13.714H.977a.977.977 0 00-.977.977V33.31c0 .539.437.976.977.976h8.928l1.215 1.213L.286 46.333a.977.977 0 101.382 1.38L12.503 36.88l7.725 7.714a.976.976 0 001.667-.692V31.814a.977.977 0 00-1.953 0v9.732l-6.058-6.049 14.883-14.882A4.651 4.651 0 0130.227 24a4.671 4.671 0 01-4.666 4.666.977.977 0 000 1.953c3.65 0 6.62-2.97 6.62-6.62a6.6 6.6 0 00-2.033-4.765l3.526-3.526A11.572 11.572 0 0137.169 24c0 6.4-5.207 11.608-11.608 11.608a.977.977 0 000 1.953c7.478 0 13.562-6.083 13.562-13.561 0-3.785-1.56-7.21-4.069-9.673l12.66-12.66a.977.977 0 000-1.38z" fill="url(#paint0_linear)"/><defs><linearGradient id="paint0_linear" x1="0" y1="24" x2="48" y2="24" gradientUnits="userSpaceOnUse"><stop stop-color="#BDC3C7"/><stop offset="1" stop-color="#2C3E50"/></linearGradient></defs></svg>