<svg width="48" height="48" viewBox="0 0 48 48" fill="none" xmlns="http://www.w3.org/2000/svg">
<path d="M43.5 36.75H40.5C40.0868 36.75 39.75 36.414 39.75 36V33.6742C41.4593 33.3255 42.75 31.8113 42.75 30V27.12C43.0252 26.0977 43.7153 25.2473 44.5192 24.2693C45.7995 22.7115 47.25 20.946 47.25 18C47.25 13.4513 43.5488 9.75 39 9.75C37.0537 9.75 35.2012 10.4467 33.7365 11.6617C33.6045 7.82925 31.2548 4.4505 27.7335 2.994C27.7402 2.92575 27.75 2.859 27.75 2.79075C27.75 1.66575 26.8342 0.75 25.7092 0.75H22.3575C21.1973 0.75 20.2343 1.62075 20.1188 2.77575L20.0887 3.0735C16.683 4.5705 14.3947 7.9365 14.2635 11.6617C12.7987 10.4467 10.9462 9.75 9 9.75C4.45125 9.75 0.75 13.4513 0.75 18C0.75 20.946 2.2005 22.7115 3.48075 24.2693C4.28475 25.2473 4.97475 26.0977 5.25 27.12V30C5.25 31.8105 6.54075 33.3255 8.25 33.6742V36C8.25 37.2405 9.2595 38.25 10.5 38.25H13.5C13.9132 38.25 14.25 38.586 14.25 39C14.25 39.414 13.9132 39.75 13.5 39.75H4.5C3.2595 39.75 2.25 40.7595 2.25 42C2.25 43.2405 3.2595 44.25 4.5 44.25H7.5C7.91325 44.25 8.25 44.586 8.25 45V47.25H9.75V45C9.75 43.7595 8.7405 42.75 7.5 42.75H4.5C4.08675 42.75 3.75 42.414 3.75 42C3.75 41.586 4.08675 41.25 4.5 41.25H13.5C14.7405 41.25 15.75 40.2405 15.75 39C15.75 37.7595 14.7405 36.75 13.5 36.75H10.5C10.0868 36.75 9.75 36.414 9.75 36V33.6742C11.4593 33.3255 12.75 31.8113 12.75 30V27.12C13.0253 26.0977 13.7152 25.2473 14.5192 24.2693C15.6322 22.9148 16.8713 21.4013 17.1765 19.0935C17.2245 19.1542 17.2717 19.2165 17.319 19.2772C18.1702 20.3662 18.9713 21.402 19.4993 22.665V27C19.4993 27.9765 20.1285 28.8015 20.9993 29.112V29.25C20.9993 30.6443 21.9592 31.8083 23.2493 32.1435V33C23.2493 33.414 22.9125 33.75 22.4993 33.75H20.2493C18.5947 33.75 17.2493 35.0955 17.2493 36.75C17.2493 38.4045 18.5947 39.75 20.2493 39.75H26.9993C28.2397 39.75 29.2493 40.7595 29.2493 42C29.2493 43.2405 28.2397 44.25 26.9993 44.25H25.4993C24.2588 44.25 23.2493 45.2595 23.2493 46.5V47.25H24.7493V46.5C24.7493 46.086 25.086 45.75 25.4993 45.75H26.9993C29.067 45.75 30.7493 44.0677 30.7493 42C30.7493 39.9323 29.067 38.25 26.9993 38.25H20.2493C19.422 38.25 18.7493 37.5773 18.7493 36.75C18.7493 35.9227 19.422 35.25 20.2493 35.25H22.4993C23.7397 35.25 24.7493 34.2405 24.7493 33V32.1435C26.0393 31.8083 26.9993 30.6443 26.9993 29.25V29.112C27.87 28.8015 28.4993 27.9765 28.4993 27V22.6658C29.0273 21.4028 29.8282 20.3678 30.6795 19.278C30.7267 19.2173 30.7747 19.155 30.822 19.0942C31.1273 21.402 32.367 22.9155 33.4792 24.27C34.2832 25.248 34.9733 26.0985 35.2485 27.1208V30C35.2485 31.8105 36.5392 33.3255 38.2485 33.6742V36C38.2485 37.2405 39.258 38.25 40.4985 38.25H43.4985C43.9118 38.25 44.2485 38.586 44.2485 39C44.2485 39.414 43.9118 39.75 43.4985 39.75H34.5C33.2595 39.75 32.25 40.7595 32.25 42C32.25 43.2405 33.2595 44.25 34.5 44.25H37.5C37.9132 44.25 38.25 44.586 38.25 45V47.25H39.75V45C39.75 43.7595 38.7405 42.75 37.5 42.75H34.5C34.0868 42.75 33.75 42.414 33.75 42C33.75 41.586 34.0868 41.25 34.5 41.25H43.5C44.7405 41.25 45.75 40.2405 45.75 39C45.75 37.7595 44.7405 36.75 43.5 36.75ZM36.75 18.75H36C35.5868 18.75 35.25 18.414 35.25 18C35.25 17.586 35.5868 17.25 36 17.25C36.4132 17.25 36.75 17.586 36.75 18V18.75ZM39.75 26.25H38.25V20.25H39.75V26.25ZM41.25 27.75V29.25H36.75V27.75H41.25ZM22.3575 2.25H25.7092C26.0077 2.25 26.25 2.49225 26.25 2.79075C26.25 2.84775 26.2403 2.907 26.2223 2.96175L24.4597 8.25H27.2505C27.5257 8.25 27.75 8.47425 27.75 8.75025C27.75 8.81625 27.7373 8.88075 27.7118 8.94225L24.2887 17.1585C24.234 17.2905 24 17.244 24 17.1V9.75H21.6788C21.3045 9.75 21 9.4455 21.0037 9.00375L21.6112 2.925C21.6495 2.54025 21.9705 2.25 22.3575 2.25ZM6.75 18.75H6C5.58675 18.75 5.25 18.414 5.25 18C5.25 17.586 5.58675 17.25 6 17.25C6.41325 17.25 6.75 17.586 6.75 18V18.75ZM9.75 26.25H8.25V20.25H9.75V26.25ZM11.25 27.75V29.25H6.75V27.75H11.25ZM9 32.25C8.0235 32.25 7.1985 31.6208 6.888 30.75H11.1112C10.8015 31.6208 9.9765 32.25 9 32.25ZM15.75 18C15.75 20.4083 14.535 21.8873 13.3605 23.3175C12.6247 24.2122 11.871 25.1355 11.4525 26.25H11.25V20.25H12C13.2405 20.25 14.25 19.2405 14.25 18C14.25 16.7595 13.2405 15.75 12 15.75C10.7595 15.75 9.75 16.7595 9.75 18V18.75H8.25V18C8.25 16.7595 7.2405 15.75 6 15.75C4.7595 15.75 3.75 16.7595 3.75 18C3.75 19.2405 4.7595 20.25 6 20.25H6.75V26.25H6.5475C6.12975 25.1348 5.37525 24.2122 4.6395 23.3175C3.465 21.8873 2.25 20.4083 2.25 18C2.25 14.2778 5.2785 11.25 9 11.25C11.1735 11.25 13.2098 12.303 14.4788 14.0662C14.7248 15.1755 15.1493 16.1258 15.6698 16.9815C15.72 17.3175 15.75 17.6588 15.75 18ZM11.25 18.75V18C11.25 17.586 11.5868 17.25 12 17.25C12.4132 17.25 12.75 17.586 12.75 18C12.75 18.414 12.4132 18.75 12 18.75H11.25ZM27 24.75H21V23.25H27V24.75ZM24 30.75C23.1728 30.75 22.5 30.0772 22.5 29.25H25.5C25.5 30.0772 24.8272 30.75 24 30.75ZM26.25 27.75H21.75C21.3368 27.75 21 27.414 21 27V26.25H27V27C27 27.414 26.6632 27.75 26.25 27.75ZM29.499 18.354C28.6935 19.3845 27.8767 20.4585 27.2767 21.75H20.724C20.124 20.4585 19.3073 19.3845 18.5018 18.354C17.0865 16.5443 15.75 14.8343 15.75 12C15.75 9.02775 17.3812 6.28575 19.9125 4.83375L19.5105 8.8545C19.503 8.9265 19.5 8.9985 19.5 9.07125C19.5 10.272 20.4773 11.25 21.6788 11.25H22.5V17.1C22.5 18.0098 23.2402 18.75 24.15 18.75C24.819 18.75 25.416 18.3517 25.6725 17.7345L29.0947 9.51975C29.1982 9.27525 29.25 9.01575 29.25 8.75025C29.25 7.647 28.353 6.75 27.2498 6.75H26.5403L27.3097 4.443C30.2925 5.7465 32.25 8.694 32.25 12C32.25 14.8343 30.9135 16.5443 29.499 18.354ZM32.25 18C32.25 17.6588 32.28 17.3175 32.331 16.9823C32.8515 16.1257 33.276 15.1755 33.522 14.0655C34.7902 12.303 36.8265 11.25 39 11.25C42.7215 11.25 45.75 14.2778 45.75 18C45.75 20.4083 44.535 21.8873 43.3605 23.3175C42.6247 24.2122 41.871 25.1355 41.4525 26.25H41.25V20.25H42C43.2405 20.25 44.25 19.2405 44.25 18C44.25 16.7595 43.2405 15.75 42 15.75C40.7595 15.75 39.75 16.7595 39.75 18V18.75H38.25V18C38.25 16.7595 37.2405 15.75 36 15.75C34.7595 15.75 33.75 16.7595 33.75 18C33.75 19.2405 34.7595 20.25 36 20.25H36.75V26.25H36.5475C36.1297 25.1348 35.3753 24.2122 34.6395 23.3175C33.465 21.8873 32.25 20.4083 32.25 18ZM41.25 18.75V18C41.25 17.586 41.5868 17.25 42 17.25C42.4132 17.25 42.75 17.586 42.75 18C42.75 18.414 42.4132 18.75 42 18.75H41.25ZM36.888 30.75H41.1112C40.8008 31.6208 39.9757 32.25 38.9993 32.25C38.0228 32.25 37.1985 31.6208 36.888 30.75Z" fill="url(#paint0_linear)"/>
<defs>
<linearGradient id="paint0_linear" x1="0.75" y1="24" x2="47.25" y2="24" gradientUnits="userSpaceOnUse">
<stop stop-color="#BDC3C7"/>
<stop offset="1" stop-color="#2C3E50"/>
</linearGradient>
</defs>
</svg>
