<svg width="48" height="48" viewBox="0 0 48 48" fill="none" xmlns="http://www.w3.org/2000/svg">
<path d="M2.17893 20.9752H6.20546C6.44361 21.834 6.78667 22.6602 7.22782 23.4345L4.3779 26.2833C4.24181 26.4194 4.16526 26.6039 4.16526 26.7967C4.16526 26.9895 4.24181 27.1741 4.3779 27.3102L7.4569 30.39C7.74042 30.673 8.19972 30.673 8.48324 30.39L11.3334 27.5395C12.1077 27.9804 12.9331 28.3237 13.7918 28.5616V32.5881C13.7918 32.989 14.1167 33.3139 14.5176 33.3139H18.8725C19.2734 33.3139 19.5983 32.989 19.5983 32.5881V28.5616C20.4571 28.3237 21.2824 27.9804 22.0567 27.5395L24.9069 30.39C25.1949 30.6622 25.6454 30.6622 25.9332 30.39L29.0128 27.3102C29.1489 27.1741 29.2254 26.9895 29.2254 26.7967C29.2254 26.6039 29.1489 26.4194 29.0128 26.2833L26.1623 23.4345C26.6035 22.6602 26.9465 21.834 27.1847 20.9752H31.2112C31.6121 20.9752 31.937 20.6503 31.937 20.2494V15.8946C31.937 15.494 31.6121 15.1688 31.2112 15.1688H27.1847C26.9465 14.3103 26.6035 13.4841 26.1623 12.7098L29.0122 9.86104C29.1483 9.72496 29.2249 9.54039 29.2249 9.34759C29.2249 9.1548 29.1483 8.97023 29.0122 8.83414L25.9332 5.75428C25.6497 5.47105 25.1904 5.47105 24.9069 5.75428L22.0567 8.60478C21.2824 8.16419 20.4568 7.82085 19.5983 7.58269V3.55588C19.5983 3.15527 19.2734 2.83008 18.8725 2.83008H14.5176C14.1167 2.83008 13.7918 3.15527 13.7918 3.55588V7.58269C12.9333 7.82085 12.1077 8.16419 11.3334 8.60478L8.48324 5.75428C8.19519 5.48211 7.74468 5.48211 7.4569 5.75428L4.37733 8.83414C4.24124 8.97023 4.16469 9.1548 4.16469 9.34759C4.16469 9.54039 4.24124 9.72496 4.37733 9.86104L7.22782 12.7098C6.78667 13.4841 6.44361 14.3103 6.20546 15.1688H2.17893C1.77804 15.1688 1.45312 15.494 1.45312 15.8946V20.2494C1.45312 20.6503 1.77804 20.9752 2.17893 20.9752ZM2.90474 16.6204H6.77334C7.11442 16.6204 7.40956 16.3831 7.48242 16.05C7.72058 14.963 8.15124 13.927 8.754 12.9914C8.938 12.7044 8.89718 12.3277 8.6559 12.0864L5.91683 9.34731L7.97007 7.29379L10.7086 10.0329C10.9498 10.2747 11.3269 10.3155 11.6144 10.1312C12.5503 9.52876 13.586 9.0981 14.673 8.85966C15.0059 8.78651 15.2434 8.49137 15.2434 8.1503V4.28169H18.1467V8.1503C18.1467 8.49137 18.3843 8.78651 18.7171 8.85966C19.8041 9.0981 20.8398 9.52876 21.7757 10.1312C22.0632 10.3155 22.4403 10.2747 22.6815 10.0329L25.42 7.29379L27.4727 9.34731L24.7342 12.0855C24.4924 12.3271 24.4518 12.7042 24.6361 12.9914C25.2389 13.9275 25.669 14.9632 25.9068 16.0505C25.98 16.3837 26.2751 16.6213 26.6159 16.6213H30.4854V19.5245H26.6159C26.2751 19.5245 25.98 19.7618 25.9068 20.0949C25.669 21.1819 25.2386 22.2176 24.6361 23.1527C24.4521 23.4399 24.4929 23.8167 24.7342 24.0579L27.4733 26.7964L25.42 28.8505L22.6815 26.1112C22.4403 25.8696 22.0632 25.8288 21.7757 26.0131C20.8404 26.6158 19.805 27.0465 18.718 27.2847C18.3845 27.3572 18.1467 27.6527 18.1467 27.9937V31.8623H15.2434V27.9937C15.2434 27.6527 15.0056 27.3572 14.6722 27.2847C13.5851 27.0465 12.5497 26.6158 11.6144 26.0131C11.3269 25.8288 10.9498 25.8696 10.7086 26.1112L7.97007 28.8505L5.9174 26.797L8.6559 24.0585C8.89774 23.8172 8.93829 23.4401 8.754 23.1527C8.15124 22.2168 7.72058 21.1808 7.48242 20.0935C7.40927 19.7604 7.11442 19.5236 6.77334 19.5236H2.90474V16.6204Z" fill="url(#paint0_linear)"/>
<path d="M16.6932 23.8786C19.9001 23.8786 22.4996 21.2793 22.4996 18.0721C22.4996 14.8652 19.9001 12.2656 16.6932 12.2656C13.4863 12.2656 10.8867 14.8652 10.8867 18.0721C10.8901 21.2773 13.488 23.8752 16.6932 23.8786ZM16.6932 13.7172C19.098 13.7172 21.048 15.6673 21.048 18.0721C21.048 20.4772 19.098 22.4269 16.6932 22.4269C14.2884 22.4269 12.3383 20.4772 12.3383 18.0721C12.3409 15.6679 14.2889 13.7198 16.6932 13.7172Z" fill="url(#paint1_linear)"/>
<path d="M16.6948 26.0556C21.1041 26.0556 24.6787 22.4813 24.6787 18.0718C24.6787 13.6625 21.1041 10.0879 16.6948 10.0879C12.2855 10.0879 8.71094 13.6625 8.71094 18.0718C8.71632 22.479 12.2875 26.0505 16.6948 26.0556ZM16.6948 11.5395C20.3026 11.5395 23.2271 14.464 23.2271 18.0718C23.2271 21.6795 20.3026 24.604 16.6948 24.604C13.087 24.604 10.1625 21.6795 10.1625 18.0718C10.1665 14.466 13.0887 11.5435 16.6948 11.5395Z" fill="url(#paint2_linear)"/>
<path d="M42.8241 36.2168V30.4104C42.8241 30.0098 42.4992 29.6846 42.0983 29.6846H40.6467V23.8781C40.6467 23.4775 40.3218 23.1523 39.9209 23.1523H33.3886C32.9877 23.1523 32.6628 23.4775 32.6628 23.8781V29.6846H29.0338C28.6329 29.6846 28.308 30.0098 28.308 30.4104V36.2168H5.08216C3.07882 36.2194 1.45568 37.8425 1.45312 39.8459V41.2975C1.45568 43.3011 3.07882 44.9242 5.08216 44.9265H42.8241C44.8274 44.9242 46.4506 43.3011 46.4531 41.2975V39.8459C46.4506 37.8425 44.8274 36.2194 42.8241 36.2168ZM41.3725 36.2168H36.2918V31.1362H41.3725V36.2168ZM34.1144 24.604H39.1951V29.6846H34.1144V24.604ZM29.7596 31.1362H34.8402V36.2168H29.7596V31.1362ZM45.0015 41.2975C45.0015 42.5002 44.0265 43.4749 42.8241 43.4749H5.08216C3.87976 43.4749 2.90474 42.5002 2.90474 41.2975V39.8459C2.90474 38.6435 3.87976 37.6685 5.08216 37.6685H42.8241C44.0265 37.6685 45.0015 38.6435 45.0015 39.8459V41.2975Z" fill="url(#paint3_linear)"/>
<path d="M23.9509 38.3945C22.7485 38.3945 21.7734 39.3695 21.7734 40.5719C21.7734 41.7746 22.7485 42.7493 23.9509 42.7493C25.1533 42.7493 26.1283 41.7746 26.1283 40.5719C26.1283 39.3695 25.1533 38.3945 23.9509 38.3945ZM23.9509 41.2977C23.55 41.2977 23.2251 40.9728 23.2251 40.5719C23.2251 40.1713 23.55 39.8461 23.9509 39.8461C24.3518 39.8461 24.6767 40.1713 24.6767 40.5719C24.6767 40.9728 24.3518 41.2977 23.9509 41.2977Z" fill="url(#paint4_linear)"/>
<path d="M16.693 38.3945C15.4906 38.3945 14.5156 39.3695 14.5156 40.5719C14.5156 41.7746 15.4906 42.7493 16.693 42.7493C17.8954 42.7493 18.8704 41.7746 18.8704 40.5719C18.8704 39.3695 17.8954 38.3945 16.693 38.3945ZM16.693 41.2977C16.2921 41.2977 15.9672 40.9728 15.9672 40.5719C15.9672 40.1713 16.2921 39.8461 16.693 39.8461C17.0939 39.8461 17.4188 40.1713 17.4188 40.5719C17.4188 40.9728 17.0939 41.2977 16.693 41.2977Z" fill="url(#paint5_linear)"/>
<path d="M31.2087 38.3945C30.0063 38.3945 29.0312 39.3695 29.0312 40.5719C29.0312 41.7746 30.0063 42.7493 31.2087 42.7493C32.411 42.7493 33.3861 41.7746 33.3861 40.5719C33.3861 39.3695 32.411 38.3945 31.2087 38.3945ZM31.2087 41.2977C30.8078 41.2977 30.4829 40.9728 30.4829 40.5719C30.4829 40.1713 30.8078 39.8461 31.2087 39.8461C31.6095 39.8461 31.9345 40.1713 31.9345 40.5719C31.9345 40.9728 31.6095 41.2977 31.2087 41.2977Z" fill="url(#paint6_linear)"/>
<path d="M9.43523 38.3945C8.23283 38.3945 7.25781 39.3695 7.25781 40.5719C7.25781 41.7746 8.23283 42.7493 9.43523 42.7493C10.6376 42.7493 11.6127 41.7746 11.6127 40.5719C11.6127 39.3695 10.6376 38.3945 9.43523 38.3945ZM9.43523 41.2977C9.03434 41.2977 8.70943 40.9728 8.70943 40.5719C8.70943 40.1713 9.03434 39.8461 9.43523 39.8461C9.83613 39.8461 10.161 40.1713 10.161 40.5719C10.161 40.9728 9.83613 41.2977 9.43523 41.2977Z" fill="url(#paint7_linear)"/>
<path d="M38.4665 38.3945C37.2641 38.3945 36.2891 39.3695 36.2891 40.5719C36.2891 41.7746 37.2641 42.7493 38.4665 42.7493C39.6689 42.7493 40.6439 41.7746 40.6439 40.5719C40.6439 39.3695 39.6689 38.3945 38.4665 38.3945ZM38.4665 41.2977C38.0656 41.2977 37.7407 40.9728 37.7407 40.5719C37.7407 40.1713 38.0656 39.8461 38.4665 39.8461C38.8674 39.8461 39.1923 40.1713 39.1923 40.5719C39.1923 40.9728 38.8674 41.2977 38.4665 41.2977Z" fill="url(#paint8_linear)"/>
<defs>
<linearGradient id="paint0_linear" x1="1.45312" y1="18.072" x2="31.937" y2="18.072" gradientUnits="userSpaceOnUse">
<stop stop-color="#BDC3C7"/>
<stop offset="1" stop-color="#2C3E50"/>
</linearGradient>
<linearGradient id="paint1_linear" x1="10.8867" y1="18.0721" x2="22.4996" y2="18.0721" gradientUnits="userSpaceOnUse">
<stop stop-color="#BDC3C7"/>
<stop offset="1" stop-color="#2C3E50"/>
</linearGradient>
<linearGradient id="paint2_linear" x1="8.71094" y1="18.0718" x2="24.6787" y2="18.0718" gradientUnits="userSpaceOnUse">
<stop stop-color="#BDC3C7"/>
<stop offset="1" stop-color="#2C3E50"/>
</linearGradient>
<linearGradient id="paint3_linear" x1="1.45312" y1="34.0394" x2="46.4531" y2="34.0394" gradientUnits="userSpaceOnUse">
<stop stop-color="#BDC3C7"/>
<stop offset="1" stop-color="#2C3E50"/>
</linearGradient>
<linearGradient id="paint4_linear" x1="21.7734" y1="40.5719" x2="26.1283" y2="40.5719" gradientUnits="userSpaceOnUse">
<stop stop-color="#BDC3C7"/>
<stop offset="1" stop-color="#2C3E50"/>
</linearGradient>
<linearGradient id="paint5_linear" x1="14.5156" y1="40.5719" x2="18.8704" y2="40.5719" gradientUnits="userSpaceOnUse">
<stop stop-color="#BDC3C7"/>
<stop offset="1" stop-color="#2C3E50"/>
</linearGradient>
<linearGradient id="paint6_linear" x1="29.0312" y1="40.5719" x2="33.3861" y2="40.5719" gradientUnits="userSpaceOnUse">
<stop stop-color="#BDC3C7"/>
<stop offset="1" stop-color="#2C3E50"/>
</linearGradient>
<linearGradient id="paint7_linear" x1="7.25781" y1="40.5719" x2="11.6127" y2="40.5719" gradientUnits="userSpaceOnUse">
<stop stop-color="#BDC3C7"/>
<stop offset="1" stop-color="#2C3E50"/>
</linearGradient>
<linearGradient id="paint8_linear" x1="36.2891" y1="40.5719" x2="40.6439" y2="40.5719" gradientUnits="userSpaceOnUse">
<stop stop-color="#BDC3C7"/>
<stop offset="1" stop-color="#2C3E50"/>
</linearGradient>
</defs>
</svg>
