<svg width="148" height="166" fill="none" xmlns="http://www.w3.org/2000/svg"><g filter="url(#filter0_d)"><path d="M108.939 35.257l-.997-.076.997.076zm-62.003 84.997l-.377-.926.377.926zm-29.29 11.161a1 1 0 00.533 1.31l8.294 3.495a1 1 0 00.777-1.843l-7.373-3.107 3.107-7.372a1 1 0 00-1.843-.777l-3.495 8.294zm91.575-112.971l-1.279 16.737 1.994.152 1.279-16.737-1.994-.152zM46.559 119.328l-28.368 11.549.754 1.853 28.368-11.55-.754-1.852zm61.383-84.147c-2.86 37.415-26.628 69.998-61.383 84.147l.754 1.852c35.457-14.435 59.706-47.675 62.623-85.847l-1.994-.152z" fill="url(#paint0_linear)"/></g><defs><linearGradient id="paint0_linear" x1="127.578" y1="32.565" x2="35.927" y2="145.848" gradientUnits="userSpaceOnUse"><stop stop-color="#1488CC"/><stop offset="1" stop-color="#2B32B2"/></linearGradient><filter id="filter0_d" x=".219" y=".877" width="147.299" height="164.455" filterUnits="userSpaceOnUse" color-interpolation-filters="sRGB"><feFlood flood-opacity="0" result="BackgroundImageFix"/><feColorMatrix in="SourceAlpha" values="0 0 0 0 0 0 0 0 0 0 0 0 0 0 0 0 0 0 127 0"/><feOffset/><feGaussianBlur stdDeviation="7.5"/><feColorMatrix values="0 0 0 0 0.197167 0 0 0 0 0.545583 0 0 0 0 0.758333 0 0 0 0.25 0"/><feBlend in2="BackgroundImageFix" result="effect1_dropShadow"/><feBlend in="SourceGraphic" in2="effect1_dropShadow" result="shape"/></filter></defs></svg>