<svg width="48" height="48" viewBox="0 0 48 48" fill="none" xmlns="http://www.w3.org/2000/svg">
<path d="M32.4706 12.2356C32.7304 12.2356 32.9411 12.0248 32.9411 11.765V9.88267C32.9411 9.62293 32.7303 9.41211 32.4706 9.41211C32.2108 9.41211 32 9.62293 32 9.88267V11.765C32 12.0248 32.2108 12.2356 32.4706 12.2356Z" fill="url(#paint0_linear)"/>
<path d="M34.3534 12.2356C34.6132 12.2356 34.8239 12.0248 34.8239 11.765V9.88267C34.8239 9.62293 34.6131 9.41211 34.3534 9.41211C34.0936 9.41211 33.8828 9.62293 33.8828 9.88267V11.765C33.8828 12.0248 34.0936 12.2356 34.3534 12.2356Z" fill="url(#paint1_linear)"/>
<path d="M36.2362 12.2356C36.496 12.2356 36.7067 12.0248 36.7067 11.765V9.88267C36.7067 9.62293 36.4959 9.41211 36.2362 9.41211C35.9764 9.41211 35.7656 9.62293 35.7656 9.88267V11.765C35.7656 12.0248 35.9764 12.2356 36.2362 12.2356Z" fill="url(#paint2_linear)"/>
<path d="M32.4706 15.9993C32.7304 15.9993 32.9411 15.7884 32.9411 15.5287V13.6463C32.9411 13.3866 32.7303 13.1758 32.4706 13.1758C32.2108 13.1758 32 13.3866 32 13.6463V15.5287C32 15.7884 32.2108 15.9993 32.4706 15.9993Z" fill="url(#paint3_linear)"/>
<path d="M34.3534 15.9993C34.6132 15.9993 34.8239 15.7884 34.8239 15.5287V13.6463C34.8239 13.3866 34.6131 13.1758 34.3534 13.1758C34.0936 13.1758 33.8828 13.3866 33.8828 13.6463V15.5287C33.8828 15.7884 34.0936 15.9993 34.3534 15.9993Z" fill="url(#paint4_linear)"/>
<path d="M36.2362 15.9993C36.496 15.9993 36.7067 15.7884 36.7067 15.5287V13.6463C36.7067 13.3866 36.4959 13.1758 36.2362 13.1758C35.9764 13.1758 35.7656 13.3866 35.7656 13.6463V15.5287C35.7656 15.7884 35.9764 15.9993 36.2362 15.9993Z" fill="url(#paint5_linear)"/>
<path d="M32.4706 19.7649C32.7304 19.7649 32.9411 19.554 32.9411 19.2943V17.412C32.9411 17.1522 32.7303 16.9414 32.4706 16.9414C32.2108 16.9414 32 17.1522 32 17.412V19.2943C32 19.554 32.2108 19.7649 32.4706 19.7649Z" fill="url(#paint6_linear)"/>
<path d="M34.3534 19.7649C34.6132 19.7649 34.8239 19.554 34.8239 19.2943V17.412C34.8239 17.1522 34.6131 16.9414 34.3534 16.9414C34.0936 16.9414 33.8828 17.1522 33.8828 17.412V19.2943C33.8828 19.554 34.0936 19.7649 34.3534 19.7649Z" fill="url(#paint7_linear)"/>
<path d="M36.2362 19.7649C36.496 19.7649 36.7067 19.554 36.7067 19.2943V17.412C36.7067 17.1522 36.4959 16.9414 36.2362 16.9414C35.9764 16.9414 35.7656 17.1522 35.7656 17.412V19.2943C35.7656 19.554 35.9764 19.7649 36.2362 19.7649Z" fill="url(#paint8_linear)"/>
<path d="M0 39.0589V40.0001V47.5295H48V40.0001V39.0589V0.470703H0V39.0589ZM46.1176 38.1177H44.2352V3.76484C44.2352 3.5051 44.0244 3.29428 43.7646 3.29428H34.3529C34.093 3.29428 33.8823 3.5051 33.8823 3.76484V6.11776H30.8235C30.4339 6.11776 30.1176 6.43399 30.1176 6.82365V7.29421C30.1176 7.68387 30.4339 8.00011 30.8235 8.00011H37.8824C38.272 8.00011 38.5882 7.68387 38.5882 7.29421V6.82365C38.5882 6.43399 38.272 6.11776 37.8824 6.11776H34.8235V4.2354H43.2941V19.2358C43.2941 18.7483 43.0098 18.353 42.6597 18.353H42.5751C42.2249 18.353 42.3529 18.7483 42.3529 19.2358V21.2358C42.3529 21.7224 42.2249 22.1177 42.5751 22.1177H42.6597C43.0099 22.1177 43.2941 21.7224 43.2941 21.2348V38.1176H25.4118V2.35305H46.1176V38.1177H46.1176ZM24.4706 38.1177H21.647V2.35305H24.4706V38.1177ZM1.88235 2.35305H20.7059V38.1177H1.88235V2.35305Z" fill="url(#paint9_linear)"/>
<path d="M17.4701 14.5879H17.3524C16.6071 14.5879 16 15.195 16 15.9413V21.706C16 22.4514 16.6071 23.0584 17.3534 23.0584H17.471C18.2164 23.0584 18.8235 22.4514 18.8235 21.705V15.9403C18.8235 15.195 18.2164 14.5879 17.4701 14.5879ZM17.8824 21.705C17.8824 21.9328 17.6979 22.1172 17.4702 22.1172H17.3525C17.1257 22.1172 16.9412 21.9328 16.9412 21.705V15.9403C16.9412 15.7135 17.1257 15.529 17.3534 15.529H17.471C17.6979 15.529 17.8824 15.7135 17.8824 15.9412V21.705Z" fill="url(#paint10_linear)"/>
<path d="M27.705 23.0584H27.8226C28.568 23.0584 29.175 22.4514 29.175 21.705V15.9403C29.175 15.195 28.568 14.5879 27.8216 14.5879H27.704C26.9586 14.5879 26.3516 15.195 26.3516 15.9413V21.706C26.3516 22.4514 26.9586 23.0584 27.705 23.0584ZM27.2927 15.9413C27.2927 15.7136 27.4771 15.5291 27.7049 15.5291H27.8225C28.0494 15.5291 28.2338 15.7136 28.2338 15.9413V21.706C28.2338 21.9329 28.0494 22.1173 27.8216 22.1173H27.704C27.4771 22.1173 27.2927 21.9329 27.2927 21.7051V15.9413Z" fill="url(#paint11_linear)"/>
<defs>
<linearGradient id="paint0_linear" x1="32" y1="10.8239" x2="32.9411" y2="10.8239" gradientUnits="userSpaceOnUse">
<stop stop-color="#BDC3C7"/>
<stop offset="1" stop-color="#2C3E50"/>
</linearGradient>
<linearGradient id="paint1_linear" x1="33.8828" y1="10.8239" x2="34.8239" y2="10.8239" gradientUnits="userSpaceOnUse">
<stop stop-color="#BDC3C7"/>
<stop offset="1" stop-color="#2C3E50"/>
</linearGradient>
<linearGradient id="paint2_linear" x1="35.7656" y1="10.8239" x2="36.7067" y2="10.8239" gradientUnits="userSpaceOnUse">
<stop stop-color="#BDC3C7"/>
<stop offset="1" stop-color="#2C3E50"/>
</linearGradient>
<linearGradient id="paint3_linear" x1="32" y1="14.5875" x2="32.9411" y2="14.5875" gradientUnits="userSpaceOnUse">
<stop stop-color="#BDC3C7"/>
<stop offset="1" stop-color="#2C3E50"/>
</linearGradient>
<linearGradient id="paint4_linear" x1="33.8828" y1="14.5875" x2="34.8239" y2="14.5875" gradientUnits="userSpaceOnUse">
<stop stop-color="#BDC3C7"/>
<stop offset="1" stop-color="#2C3E50"/>
</linearGradient>
<linearGradient id="paint5_linear" x1="35.7656" y1="14.5875" x2="36.7067" y2="14.5875" gradientUnits="userSpaceOnUse">
<stop stop-color="#BDC3C7"/>
<stop offset="1" stop-color="#2C3E50"/>
</linearGradient>
<linearGradient id="paint6_linear" x1="32" y1="18.3531" x2="32.9411" y2="18.3531" gradientUnits="userSpaceOnUse">
<stop stop-color="#BDC3C7"/>
<stop offset="1" stop-color="#2C3E50"/>
</linearGradient>
<linearGradient id="paint7_linear" x1="33.8828" y1="18.3531" x2="34.8239" y2="18.3531" gradientUnits="userSpaceOnUse">
<stop stop-color="#BDC3C7"/>
<stop offset="1" stop-color="#2C3E50"/>
</linearGradient>
<linearGradient id="paint8_linear" x1="35.7656" y1="18.3531" x2="36.7067" y2="18.3531" gradientUnits="userSpaceOnUse">
<stop stop-color="#BDC3C7"/>
<stop offset="1" stop-color="#2C3E50"/>
</linearGradient>
<linearGradient id="paint9_linear" x1="0" y1="24.0001" x2="48" y2="24.0001" gradientUnits="userSpaceOnUse">
<stop stop-color="#BDC3C7"/>
<stop offset="1" stop-color="#2C3E50"/>
</linearGradient>
<linearGradient id="paint10_linear" x1="16" y1="18.8232" x2="18.8235" y2="18.8232" gradientUnits="userSpaceOnUse">
<stop stop-color="#BDC3C7"/>
<stop offset="1" stop-color="#2C3E50"/>
</linearGradient>
<linearGradient id="paint11_linear" x1="26.3516" y1="18.8232" x2="29.175" y2="18.8232" gradientUnits="userSpaceOnUse">
<stop stop-color="#BDC3C7"/>
<stop offset="1" stop-color="#2C3E50"/>
</linearGradient>
</defs>
</svg>
