<svg width="48" height="48" viewBox="0 0 48 48" fill="none" xmlns="http://www.w3.org/2000/svg">
<g clip-path="url(#clip0)">
<path d="M19.0074 30H4.28544C3.76944 30 3.28541 29.8301 2.89344 29.522L2.82941 29.43C2.74138 29.3021 2.62944 29.202 2.50344 29.13C2.45347 29.066 2.40547 28.998 2.36141 28.926C1.94741 28.254 1.90944 27.432 2.26344 26.726L5.90141 19.446C6.09341 19.062 6.01738 18.596 5.71344 18.2921L3.42144 16.0001H14.0074C14.5594 16.0001 15.0074 15.552 15.0074 15C15.0074 14.448 14.5594 14 14.0074 14H1.00738C0.603412 14 0.237412 14.244 0.083381 14.618C-0.0706503 14.992 0.0154122 15.42 0.299381 15.708L3.78941 19.1981L0.473381 25.832C-0.192619 27.162 -0.122588 28.712 0.659381 29.978C0.86535 30.316 1.11538 30.616 1.39738 30.876L8.39535 40.9841C9.70138 42.8741 11.8554 44.0001 14.1513 44.0001H19.0073C19.5593 44.0001 20.0073 43.5521 20.0073 43.0001V31.0001C20.0074 30.4481 19.5594 30 19.0074 30ZM18.0074 42H14.1514C12.5114 42 10.9734 41.1941 10.0414 39.846L4.60944 32H18.0074V42Z" fill="url(#paint0_linear)"/>
<path d="M46.5759 29.1785C46.1279 28.8625 45.4979 28.9745 45.1859 29.4305L37.9758 39.8465C37.0419 41.1945 35.5039 42.0005 33.8639 42.0005H31.0078C30.4558 42.0005 30.0078 42.4485 30.0078 43.0005C30.0078 43.5525 30.4558 44.0005 31.0078 44.0005H33.8639C36.1599 44.0005 38.3118 42.8745 39.6198 40.9866L46.8299 30.5706C47.1439 30.1165 47.0319 29.4925 46.5759 29.1785Z" fill="url(#paint1_linear)"/>
<path d="M47.5178 25.7918L42.8799 17.5118C42.7459 17.2759 42.5239 17.1038 42.2638 17.0338C41.9979 16.9658 41.7219 17.0038 41.4918 17.1438L36.4918 20.1438C36.0178 20.4278 35.8618 21.0418 36.1479 21.5158C36.4359 21.9898 37.0558 22.1438 37.5199 21.8578L41.6379 19.3878L45.7519 26.7258C46.1059 27.4318 46.0679 28.2538 45.6539 28.9258C45.2379 29.5978 44.5198 29.9998 43.7299 29.9998H31.0078C30.4558 29.9998 30.0078 30.4478 30.0078 30.9998C30.0078 31.5518 30.4558 31.9999 31.0078 31.9999H43.7298C45.2178 31.9999 46.5738 31.2439 47.3538 29.9798C48.1358 28.7138 48.2059 27.1638 47.5178 25.7918Z" fill="url(#paint2_linear)"/>
<path d="M38.8086 30.4001L35.8086 26.4001C35.4746 25.9561 34.8506 25.8701 34.4086 26.2001C33.9666 26.5321 33.8766 27.1582 34.2066 27.6001L37.2066 31.6001C37.4026 31.8622 37.7046 32.0002 38.0066 32.0002C38.2146 32.0002 38.4266 31.9342 38.6066 31.8002C39.0486 31.4681 39.1386 30.8421 38.8086 30.4001Z" fill="url(#paint3_linear)"/>
<path d="M41.6878 4.26797C41.3818 3.98194 40.9359 3.91594 40.5598 4.104L37.3498 5.71003L35.0278 2.226C34.0978 0.832031 32.5438 0 30.8679 0H19.0078C18.4558 0 18.0078 0.448031 18.0078 1.00003C18.0078 1.55203 18.4558 2.00006 19.0078 2.00006H30.8679C31.8739 2.00006 32.8039 2.50003 33.3619 3.33609L36.1739 7.55409C36.4539 7.97606 37.0059 8.11613 37.4539 7.89413L39.0499 7.09613L35.0839 16.6141C34.8739 17.1241 35.1139 17.7101 35.6239 17.9221C35.7479 17.9761 35.8799 18.0001 36.0079 18.0001C36.3979 18.0001 36.7719 17.7681 36.9299 17.3841L41.9299 5.38406C42.0898 4.998 41.9938 4.554 41.6878 4.26797Z" fill="url(#paint4_linear)"/>
<path d="M30.2038 15.0163L28.0638 14.5883L29.4558 13.8923C29.7138 13.7623 29.9058 13.5283 29.9778 13.2484C30.0498 12.9683 29.9977 12.6704 29.8338 12.4324L23.2898 2.91223C22.0618 1.1262 20.1138 0.076196 17.9458 0.0322272C15.8698 -0.00377278 13.7918 0.956227 12.4898 2.69023L8.20777 8.40026C8.03377 8.63229 7.96777 8.92826 8.0318 9.21223C8.0918 9.4962 8.27377 9.74023 8.5298 9.87626L19.5298 15.8763C19.9638 16.1203 20.5258 15.9943 20.8218 15.5803L25.2798 9.34029L27.5317 12.6183L24.5598 14.1043C24.1777 14.2963 23.9598 14.7083 24.0178 15.1323C24.0738 15.5563 24.3918 15.8962 24.8118 15.9802L29.8117 16.9803C29.8777 16.9942 29.9437 17.0002 30.0097 17.0002C30.4758 17.0002 30.8917 16.6722 30.9897 16.1922C31.0978 15.6502 30.7459 15.1243 30.2038 15.0163ZM19.7098 13.6983L10.5017 8.67626L14.0897 3.89023C14.9977 2.67823 16.3918 1.98626 17.9038 2.0322C19.4198 2.06416 20.7798 2.79823 21.6398 4.04623L24.0758 7.5882L19.7098 13.6983Z" fill="url(#paint5_linear)"/>
<path d="M31.0059 42.0002C30.4539 42.0002 30.0059 42.4482 30.0059 43.0002V44.3682L24.2838 37.9302L28.8218 31.5802C29.1418 31.1322 29.0398 30.5062 28.5898 30.1862C28.1398 29.8662 27.5138 29.9682 27.1937 30.4182L22.1938 37.4183C21.9218 37.7983 21.9518 38.3163 22.2598 38.6643L30.2597 47.6644C30.4537 47.8823 30.7277 48.0004 31.0078 48.0004C31.1258 48.0004 31.2478 47.9783 31.3618 47.9344C31.7498 47.7884 32.0057 47.4164 32.0057 47.0003V43.0003C32.0059 42.4482 31.5579 42.0002 31.0059 42.0002Z" fill="url(#paint6_linear)"/>
<path d="M17.9449 26.6484L14.9449 18.6485C14.6509 17.8685 13.3649 17.8685 13.0729 18.6485L10.0729 26.6484C9.87684 27.1664 10.1389 27.7424 10.6568 27.9365C11.1688 28.1265 11.7508 27.8705 11.9449 27.3525L14.0089 21.8485L16.0729 27.3525C16.2229 27.7525 16.6049 28.0005 17.0089 28.0005C17.1248 28.0005 17.2448 27.9805 17.3609 27.9365C17.8789 27.7425 18.1409 27.1665 17.9449 26.6484Z" fill="url(#paint7_linear)"/>
<path d="M16.0078 24H12.0078C11.4558 24 11.0078 24.448 11.0078 25C11.0078 25.552 11.4558 26.0001 12.0078 26.0001H16.0079C16.5599 26.0001 17.0079 25.552 17.0079 25C17.0079 24.448 16.5598 24 16.0078 24Z" fill="url(#paint8_linear)"/>
<path d="M25.0079 26.0001H22.0079V19C22.0079 18.448 21.5598 18 21.0078 18C20.4558 18 20.0078 18.448 20.0078 19V27.0001C20.0078 27.5521 20.4558 28.0001 21.0078 28.0001H25.0079C25.5599 28.0001 26.0079 27.5521 26.0079 27.0001C26.0079 26.4481 25.5599 26.0001 25.0079 26.0001Z" fill="url(#paint9_linear)"/>
<path d="M33.0078 18C32.4558 18 32.0078 18.448 32.0078 19V24C32.0078 25.102 31.1118 26 30.0078 26C28.9038 26 28.0079 25.1019 28.0079 24V19C28.0079 18.448 27.5598 18 27.0078 18C26.4558 18 26.0078 18.448 26.0078 19V24C26.0078 26.206 27.8018 28 30.0078 28C32.2118 28 34.0079 26.206 34.0079 24V19C34.0078 18.448 33.5598 18 33.0078 18Z" fill="url(#paint10_linear)"/>
</g>
<defs>
<linearGradient id="paint0_linear" x1="0.0078125" y1="29" x2="20.0073" y2="29" gradientUnits="userSpaceOnUse">
<stop stop-color="#BDC3C7"/>
<stop offset="1" stop-color="#2C3E50"/>
</linearGradient>
<linearGradient id="paint1_linear" x1="30.0078" y1="36.4998" x2="47.0078" y2="36.4998" gradientUnits="userSpaceOnUse">
<stop stop-color="#BDC3C7"/>
<stop offset="1" stop-color="#2C3E50"/>
</linearGradient>
<linearGradient id="paint2_linear" x1="30.0078" y1="24.5004" x2="47.9906" y2="24.5004" gradientUnits="userSpaceOnUse">
<stop stop-color="#BDC3C7"/>
<stop offset="1" stop-color="#2C3E50"/>
</linearGradient>
<linearGradient id="paint3_linear" x1="34.0078" y1="29.0001" x2="39.0074" y2="29.0001" gradientUnits="userSpaceOnUse">
<stop stop-color="#BDC3C7"/>
<stop offset="1" stop-color="#2C3E50"/>
</linearGradient>
<linearGradient id="paint4_linear" x1="18.0078" y1="9.00005" x2="42.0063" y2="9.00005" gradientUnits="userSpaceOnUse">
<stop stop-color="#BDC3C7"/>
<stop offset="1" stop-color="#2C3E50"/>
</linearGradient>
<linearGradient id="paint5_linear" x1="8.00781" y1="8.51574" x2="31.0092" y2="8.51574" gradientUnits="userSpaceOnUse">
<stop stop-color="#BDC3C7"/>
<stop offset="1" stop-color="#2C3E50"/>
</linearGradient>
<linearGradient id="paint6_linear" x1="22.0078" y1="39.0002" x2="32.0057" y2="39.0002" gradientUnits="userSpaceOnUse">
<stop stop-color="#BDC3C7"/>
<stop offset="1" stop-color="#2C3E50"/>
</linearGradient>
<linearGradient id="paint7_linear" x1="10.0078" y1="23.032" x2="18.0099" y2="23.032" gradientUnits="userSpaceOnUse">
<stop stop-color="#BDC3C7"/>
<stop offset="1" stop-color="#2C3E50"/>
</linearGradient>
<linearGradient id="paint8_linear" x1="11.0078" y1="25" x2="17.0079" y2="25" gradientUnits="userSpaceOnUse">
<stop stop-color="#BDC3C7"/>
<stop offset="1" stop-color="#2C3E50"/>
</linearGradient>
<linearGradient id="paint9_linear" x1="20.0078" y1="23.0001" x2="26.0079" y2="23.0001" gradientUnits="userSpaceOnUse">
<stop stop-color="#BDC3C7"/>
<stop offset="1" stop-color="#2C3E50"/>
</linearGradient>
<linearGradient id="paint10_linear" x1="26.0078" y1="23" x2="34.0079" y2="23" gradientUnits="userSpaceOnUse">
<stop stop-color="#BDC3C7"/>
<stop offset="1" stop-color="#2C3E50"/>
</linearGradient>
<clipPath id="clip0">
<rect width="48" height="48" fill="white"/>
</clipPath>
</defs>
</svg>
