<svg width="48" height="48" viewBox="0 0 48 48" fill="none" xmlns="http://www.w3.org/2000/svg">
<path d="M44.4775 6.57534H42.7397V2.58317C42.7397 1.15886 41.5809 0 40.1566 0H5.40117C3.97686 0 2.818 1.15886 2.818 2.58317V3.75734H2.58317C1.15886 3.75734 0 4.9162 0 6.34051V8.21918C0 9.64349 1.15886 10.8023 2.58317 10.8023H2.818V11.9765C2.818 13.4008 3.97686 14.5597 5.40117 14.5597H7.13894V16.5793C7.13894 18.2626 8.5084 19.6321 10.1918 19.6321C11.8752 19.6321 13.2446 18.2626 13.2446 16.5793V14.5597H40.1566C41.5809 14.5597 42.7397 13.4008 42.7397 11.9765V7.98434H44.4775C45.6428 7.98434 46.591 8.93251 46.591 10.0978V16.1871C46.591 17.2147 45.8564 18.0902 44.8443 18.2686L24.9855 21.7685C23.2986 22.0658 22.0744 23.5247 22.0744 25.2376V25.9256H17.8474V43.0685C17.8474 45.7877 20.0597 48 22.7789 48C25.4981 48 27.7104 45.7877 27.7104 43.0685V25.9256H23.4834V25.2376C23.4834 24.2099 24.2179 23.3345 25.2301 23.1561L45.0889 19.6561C46.7758 19.3588 48 17.9 48 16.1871V10.0978C48 8.15549 46.4198 6.57534 44.4775 6.57534ZM2.818 9.39335H2.58317C1.93569 9.39335 1.409 8.86666 1.409 8.21918V6.34051C1.409 5.69303 1.93569 5.16634 2.58317 5.16634H2.818V9.39335ZM7.13894 13.1507H5.40117C4.75369 13.1507 4.22701 12.624 4.22701 11.9765V6.14306C5.18297 6.25071 5.74459 6.57891 6.3762 6.94854C6.43651 6.98377 6.49672 7.01908 6.5574 7.05412C6.91613 7.2619 7.13894 7.65022 7.13894 8.06785V13.1507ZM41.3307 11.9765C41.3307 12.624 40.804 13.1507 40.1566 13.1507H13.2446V7.7775C13.2446 7.35349 13.4739 6.96132 13.8431 6.75391C14.4271 6.42599 15.1022 6.10577 16.3595 6.10577C17.6988 6.10577 18.3499 6.67754 19.104 7.33968C19.9496 8.08204 20.9081 8.92368 22.7781 8.92368C24.7076 8.92368 25.6722 7.79441 26.5232 6.79806C27.3019 5.88643 27.917 5.16634 29.197 5.16634C30.5364 5.16634 31.1875 5.73811 31.9417 6.40025C32.7874 7.14279 33.7459 7.98434 35.6161 7.98434C37.4119 7.98434 38.3521 7.43408 39.1816 6.94854C39.8131 6.57891 40.3748 6.25071 41.3307 6.14306V11.9765ZM41.3307 4.72833C39.98 4.85054 39.1831 5.31494 38.4698 5.73248C37.6971 6.18477 37.0299 6.57534 35.6161 6.57534C34.2766 6.57534 33.6255 6.00348 32.8713 5.34143C32.0256 4.59889 31.0671 3.75734 29.197 3.75734C27.2675 3.75734 26.3029 4.88661 25.4518 5.88296C24.6731 6.79458 24.0581 7.51468 22.7781 7.51468C21.4388 7.51468 20.7877 6.9429 20.0336 6.28077C19.188 5.53832 18.2295 4.69667 16.3595 4.69667C14.8382 4.69667 13.9193 5.09495 13.153 5.52535C12.3404 5.98196 11.8356 6.84484 11.8356 7.7775V16.5793C11.8356 17.4856 11.0981 18.2231 10.1918 18.2231C9.28542 18.2231 8.54795 17.4856 8.54795 16.5793V8.06785C8.54795 7.14918 8.05573 6.29345 7.26331 5.83477C7.2046 5.80086 7.14627 5.76667 7.08794 5.73248C6.37461 5.31494 5.57777 4.85054 4.22701 4.72833V2.58317C4.22701 1.93569 4.75369 1.409 5.40117 1.409H40.1566C40.804 1.409 41.3307 1.93569 41.3307 2.58317V4.72833ZM26.3014 43.0685C26.3014 45.0108 24.7212 46.591 22.7789 46.591C20.8365 46.591 19.2564 45.0108 19.2564 43.0685V31.092H26.3014V43.0685ZM26.3014 27.3346V29.683H19.2564V27.3346H26.3014Z" fill="url(#paint0_linear)"/>
<path d="M10.1935 27.9922C8.51008 27.9922 7.14062 29.3616 7.14062 31.045C7.14062 32.7284 8.51008 34.0979 10.1935 34.0979C11.8768 34.0979 13.2463 32.7284 13.2463 31.045C13.2463 29.3616 11.8768 27.9922 10.1935 27.9922ZM10.1935 32.6889C9.2871 32.6889 8.54963 31.9514 8.54963 31.045C8.54963 30.1387 9.2871 29.4012 10.1935 29.4012C11.0998 29.4012 11.8373 30.1387 11.8373 31.045C11.8373 31.9514 11.0998 32.6889 10.1935 32.6889Z" fill="url(#paint1_linear)"/>
<path d="M10.1922 26.2066C11.513 26.2066 12.5875 25.1321 12.5875 23.8113C12.5875 22.4905 11.513 21.416 10.1922 21.416C8.87138 21.416 7.79688 22.4905 7.79688 23.8113C7.79688 25.1321 8.87138 26.2066 10.1922 26.2066ZM10.1922 22.825C10.7361 22.825 11.1785 23.2674 11.1785 23.8113C11.1785 24.3552 10.7361 24.7976 10.1922 24.7976C9.6483 24.7976 9.20588 24.3552 9.20588 23.8113C9.20588 23.2674 9.6483 22.825 10.1922 22.825Z" fill="url(#paint2_linear)"/>
<path d="M22.7776 45.1821C23.9429 45.1821 24.8911 44.2339 24.8911 43.0686C24.8911 41.9032 23.9429 40.9551 22.7776 40.9551C21.6122 40.9551 20.6641 41.9032 20.6641 43.0686C20.6641 44.2339 21.6122 45.1821 22.7776 45.1821ZM22.7776 42.3641C23.1661 42.3641 23.4821 42.6801 23.4821 43.0686C23.4821 43.4571 23.1661 43.7731 22.7776 43.7731C22.3891 43.7731 22.0731 43.4571 22.0731 43.0686C22.0731 42.6801 22.3891 42.3641 22.7776 42.3641Z" fill="url(#paint3_linear)"/>
<defs>
<linearGradient id="paint0_linear" x1="0" y1="24" x2="48" y2="24" gradientUnits="userSpaceOnUse">
<stop stop-color="#BDC3C7"/>
<stop offset="1" stop-color="#2C3E50"/>
</linearGradient>
<linearGradient id="paint1_linear" x1="7.14062" y1="31.045" x2="13.2463" y2="31.045" gradientUnits="userSpaceOnUse">
<stop stop-color="#BDC3C7"/>
<stop offset="1" stop-color="#2C3E50"/>
</linearGradient>
<linearGradient id="paint2_linear" x1="7.79688" y1="23.8113" x2="12.5875" y2="23.8113" gradientUnits="userSpaceOnUse">
<stop stop-color="#BDC3C7"/>
<stop offset="1" stop-color="#2C3E50"/>
</linearGradient>
<linearGradient id="paint3_linear" x1="20.6641" y1="43.0686" x2="24.8911" y2="43.0686" gradientUnits="userSpaceOnUse">
<stop stop-color="#BDC3C7"/>
<stop offset="1" stop-color="#2C3E50"/>
</linearGradient>
</defs>
</svg>
